<?xml version="1.0" encoding="UTF-8"?><svg id="Layer_1" xmlns="http://www.w3.org/2000/svg" viewBox="0 0 215 50"><defs><style>.cls-1{fill:#d2dacb;stroke-width:0px;}</style></defs><path class="cls-1" d="m112.78205,36.67602v-2.8061h.37163v2.8061h-.37163Z"/><path class="cls-1" d="m113.15367,36.83389h-.37163c-.08715,0-.15787-.07072-.15787-.15787v-2.8061c0-.08715.07072-.15785.15787-.15785h.37163c.08714,0,.15785.0707.15785.15785v2.8061c0,.08715-.07072.15787-.15785.15787Zm-.21378-.31572h.05589v-2.4904h-.05589v2.4904Z"/><path class="cls-1" d="m113.80402,36.67602v-2.8061h.38107l1.47376,2.20302v-2.20302h.35601v2.8061h-.38108l-1.47376-2.20509v2.20509h-.35599Z"/><path class="cls-1" d="m116.01485,36.83389h-.38108c-.05262,0-.10196-.02632-.13113-.07031l-1.18476-1.77219v1.68463c0,.08715-.07072.15787-.15787.15787h-.35599c-.08715,0-.15788-.07072-.15788-.15787v-2.8061c0-.08715.07073-.15785.15788-.15785h.38107c.05262,0,.10194.0263.13114.06987l1.18476,1.771v-1.68302c0-.08715.0707-.15785.15785-.15785h.35601c.08715,0,.15785.0707.15785.15785v2.8061c0,.08715-.0707.15787-.15785.15787Zm-.29682-.31572h.13895v-2.4904h-.04027v2.04517c0,.06948-.04564.13073-.11182.15087-.06701.02221-.13895-.00533-.17717-.06289l-1.42691-2.13315h-.13894v2.4904h.04029v-2.04724c0-.06946.04562-.13072.11221-.15086.06496-.02178.13856.00533.17678.0633l1.42688,2.1348Z"/><path class="cls-1" d="m116.51227,35.77451l.35024-.03043c.01686.14019.0555.25529.11593.34531s.15459.16279.28242.21829c.12744.05549.27091.08304.43042.08304.14182,0,.26679-.02097.37531-.0629.10853-.04233.18909-.09989.24215-.17349.05302-.07316.07933-.15332.07933-.24006,0-.08797-.02549-.16485-.07646-.23062-.05099-.06577-.13525-.12085-.25283-.16568-.07523-.02919-.24171-.07481-.49946-.13688-.25777-.06167-.43823-.12004-.54143-.17513-.134-.06988-.2339-.15703-.29967-.26105s-.09866-.22033-.09866-.34942c0-.14182.04029-.2742.12045-.39711.08058-.12332.19773-.21665.35231-.28035.15457-.06372.32599-.09581.5151-.09581.2076,0,.39136.03331.55004.10031.15909.06701.28118.16568.36669.296.0855.12989.13116.27747.13771.4419l-.35599.02672c-.01932-.17717-.08387-.3112-.19445-.40164-.11017-.09084-.27336-.13607-.48878-.13607-.22486,0-.38849.04111-.49085.12333-.10276.08263-.15415.1817-.15415.29763,0,.10112.03617.18376.10893.24913.07153.06494.25818.13155.5599.19979.30174.06824.50893.12826.62116.17923.1632.07523.28366.17062.36176.28612.07769.11552.11675.24829.11675.39876,0,.14963-.04275.29022-.12826.42219-.0855.13196-.20841.23473-.36833.30831-.16033.07318-.34039.10977-.541.10977-.25364,0-.46659-.037-.638-.11099-.17184-.07401-.30626-.185-.40409-.33381-.09745-.1488-.14883-.31696-.15416-.5044Z"/><path class="cls-1" d="m117.70853,36.88156c-.27419,0-.51017-.04151-.70049-.12372-.19979-.08634-.35889-.21789-.47358-.39219-.11347-.17306-.17389-.37039-.18006-.58663-.00246-.08345.06083-.15457.1443-.16198l.35024-.03041c.08428-.00863.16033.05426.17021.13853.01396.11471.0444.2076.09043.27626.04316.06413.11511.11839.21418.16157.20101.08797.49454.09124.68609.01767.07853-.03085.13649-.07072.17062-.11882.03372-.04605.04975-.09415.04975-.14758,0-.05304-.01399-.09579-.04358-.13401-.02219-.02879-.07235-.07236-.18415-.11471-.04769-.01849-.16897-.05591-.48017-.13113-.27296-.06537-.46248-.12703-.5788-.18911-.15703-.0818-.2779-.18828-.35889-.31612-.0814-.12909-.12291-.27502-.12291-.4337,0-.17225.04932-.33463.14592-.48343.09827-.15006.24092-.26434.42468-.33998.36258-.15006.84725-.13814,1.18638.00494.18748.07892.33465.19855.4374.35475.10073.15294.15581.32887.16362.5225.00328.08469-.06126.15703-.14593.16362l-.35601.02672c-.09331.00616-.15951-.05591-.16895-.14018-.0148-.13608-.05961-.2331-.13732-.29682-.08097-.06659-.21171-.10031-.38888-.10031-.23267,0-.34161.0481-.39217.08839-.08428.06783-.09498.12909-.09498.17471,0,.05674.01688.0962.05674.13155.01316.01233.09702.07482.48919.1632.31407.07112.52744.1332.65157.18951.18951.08756.33298.20225.42713.34161.09537.14184.14389.30587.14389.48715,0,.17965-.0518.35066-.15374.5081-.10155.15663-.2479.27996-.43453.36587-.18089.08263-.38519.12415-.60719.12415Zm-1.02238-.96359c.01975.09907.05674.18992.11224.27461.08097.12291.19033.21295.33463.27502.15086.06537.34448.09825.57551.09825.17678,0,.3367-.03207.47564-.09538.1332-.06126.23184-.14347.30132-.25077.06907-.10688.10279-.21663.10279-.33626,0-.11921-.02961-.22076-.09004-.31079-.06126-.09044-.16114-.16812-.2968-.23062-.0699-.03206-.2298-.08714-.5899-.16853-.43699-.09907-.56691-.17882-.63103-.23721-.10484-.09413-.16075-.22076-.16075-.36587,0-.16321.07359-.30874.21295-.42054.13279-.10647.3256-.15827.58992-.15827.25242,0,.45056.05796.58909.17225.10812.08797.18252.20719.22281.35519l.04893-.00372c-.0181-.07564-.04852-.14512-.09128-.21006-.06864-.10483-.16525-.18211-.29599-.23721-.26144-.11099-.65775-.12169-.94384-.00411-.1254.0518-.21707.12374-.28038.22077-.0637.09783-.09454.19936-.09454.31078,0,.09948.02425.18622.07438.26515.05017.07975.13073.14882.23928.20554.0637.0337.20184.0888.50481.16155.26762.06414.4374.111.52004.14308.14593.05549.25077.12619.32064.21621.07235.09374.10936.20391.10936.32724,0,.12045-.03701.23267-.10936.33258-.07029.09783-.17553.17471-.31242.22816-.27008.10399-.64952.09783-.92618-.02262-.15539-.06742-.27339-.15992-.35066-.27502-.05017-.07482-.08839-.16321-.11389-.26351l-.04727.00411Z"/><path class="cls-1" d="m119.25341,36.67602v-2.8061h1.05814c.18664,0,.32887.00905.42713.02715.13771.0226.25324.06659.34614.13113.09331.06413.16814.15457.22486.27049.05715.11635.08549.24379.08549.38315,0,.23843-.07603.44026-.22773.60552-.15209.16525-.4263.24789-.823.24789h-.71981v1.14077h-.37122Zm.37122-1.4717h.72516c.24008,0,.41027-.04481.51139-.13401.10072-.08961.15087-.215.15087-.37738,0-.11717-.02959-.21789-.0888-.30132-.05919-.08347-.13771-.13854-.23432-.16568-.06289-.01644-.17799-.02467-.34655-.02467h-.71775v1.00306Z"/><path class="cls-1" d="m119.62463,36.83389h-.37122c-.08715,0-.15787-.07072-.15787-.15787v-2.8061c0-.08715.07072-.15785.15787-.15785h1.05814c.19775,0,.34697.00986.45589.02959.15705.02589.29517.07892.4074.15705.11471.07851.2076.18991.27667.33049.06742.13732.10155.28942.10155.45263,0,.27789-.09044.51754-.26926.71242-.18541.20101-.4925.29886-.93935.29886h-.56196v.98291c0,.08715-.07072.15787-.15785.15787Zm-.21337-.31572h.05552v-.98292c0-.08715.0707-.15785.15785-.15785h.71981c.34862,0,.58663-.06618.70666-.19692.12539-.13649.18622-.29969.18622-.49864,0-.11593-.02262-.21872-.06946-.31366-.04521-.0925-.10153-.16116-.17226-.21008-.07438-.05139-.16895-.08674-.28241-.10525-.09167-.01684-.2257-.02508-.40164-.02508h-.90029v2.4904Zm.93852-1.156h-.72516c-.08715,0-.15785-.0707-.15785-.15785v-1.00306c0-.08715.0707-.15785.15785-.15785h.71775c.18581,0,.30874.00944.38642.02959.13527.03824.24296.11428.32312.22733.07853.11017.118.24215.118.3926,0,.20843-.06866.37492-.20391.49537-.13277.11717-.33421.17388-.61622.17388Zm-.5673-.3157h.5673c.24789,0,.35806-.05139.40699-.09455.06618-.0592.09742-.14141.09742-.25899,0-.08469-.01932-.15333-.05961-.21006-.03781-.05304-.08634-.08757-.14841-.10483-.02508-.00659-.10196-.01891-.3038-.01891h-.5599v.68734Z"/><path class="cls-1" d="m121.93085,36.67602v-2.8061h.37163v2.8061h-.37163Z"/><path class="cls-1" d="m122.30247,36.83389h-.37163c-.08715,0-.15787-.07072-.15787-.15787v-2.8061c0-.08715.07072-.15785.15787-.15785h.37163c.08714,0,.15785.0707.15785.15785v2.8061c0,.08715-.07072.15787-.15785.15787Zm-.21378-.31572h.05591v-2.4904h-.05591v2.4904Z"/><path class="cls-1" d="m122.96309,36.67602v-2.8061h1.24395c.24994,0,.44027.0255.57019.07564.13031.05058.23431.13936.312.26722.0781.12743.11676.26843.11676.423,0,.19896-.06414.36669-.19322.50316-.12868.13649-.32806.22364-.59731.26023.09825.04727.17306.09415.22405.13977.10851.09949.21128.22405.3083.37327l.48796.7638h-.467l-.3712-.58376c-.10854-.16853-.19775-.29721-.26804-.38682-.07031-.08921-.1332-.15169-.1887-.18746-.05549-.03577-.1118-.06043-.16936-.07442-.04192-.00903-.11099-.01355-.20678-.01355h-.43041v1.24601h-.3712Zm.3712-1.56748h.79792c.16979,0,.30257-.01767.39835-.05262.09579-.03537.16855-.09126.21829-.16855.04973-.07729.0744-.16114.0744-.25159,0-.13277-.0481-.24172-.14428-.32723-.09662-.0855-.24872-.12827-.45674-.12827h-.88795v.92825Z"/><path class="cls-1" d="m125.43578,36.83389h-.467c-.05384,0-.10442-.02756-.1332-.07318l-.3712-.58376c-.10483-.16237-.19074-.28735-.25899-.37407-.07359-.09333-.12209-.13444-.15006-.15213-.04068-.0263-.08016-.04398-.12126-.05384-.00986-.00205-.05467-.00905-.16938-.00905h-.27256v1.08816c0,.08715-.0707.15787-.15785.15787h-.3712c-.08715,0-.15787-.07072-.15787-.15787v-2.8061c0-.08715.07072-.15785.15787-.15785h1.24395c.27173,0,.47686.02836.6269.08632.16362.06331.29475.17513.39013.33258.09248.15087.13977.32106.13977.50482,0,.24008-.07934.44562-.23638.6117-.08715.09209-.19897.16525-.33504.21911.10112.10072.19773.22115.28777.35971l.48878.76463c.03083.04849.03289.11016.00533.16072-.02795.05099-.08097.08223-.13853.08223Zm-.38025-.31572h.09208l-.33298-.52087c-.0888-.13688-.18376-.25198-.28157-.34202-.01728-.0152-.04647-.0374-.09333-.06496.00452.00576.00903.01151.01397.01728.07235.09291.16486.22526.27667.39917l.32517.51139Zm-1.93459,0h.0555v-1.08816c0-.08717.0707-.15787.15785-.15787h.43041c.10977,0,.18581.00536.24008.01727.07853.01891.1517.05097.22159.09579.01027.00698.02095.01397.03123.02178-.00039-.0107.00042-.02139.00207-.03248.00823-.05345.04316-.09742.09044-.1188-.06579.00699-.13814.01068-.21789.01068h-.79792c-.08715,0-.15785-.0707-.15785-.15785v-.92825c0-.07316.04973-.13442.11715-.15252h-.17266v2.4904Zm1.29329-2.483c.15498.0218.27707.07318.36956.155.12909.1151.19734.26926.19734.44562,0,.12085-.03331.23432-.09949.33709-.06783.10523-.1669.18294-.29434.23021.13484-.03864.23885-.0962.31079-.17225.10112-.10729.15004-.23638.15004-.39506,0-.12663-.03043-.23802-.09331-.34039-.06002-.09866-.13647-.16444-.23473-.20266-.0555-.02139-.15004-.04565-.30585-.05757Zm-.92209.9155h.64007c.18705,0,.29023-.02343.34409-.04316.0633-.02302.10893-.05795.13977-.10564.0333-.05139.04932-.10566.04932-.16608,0-.08756-.02917-.15374-.09124-.20924-.06537-.05756-.18705-.08839-.35191-.08839h-.7301v.61252Z"/><path class="cls-1" d="m125.79549,36.67602v-2.8061h2.02914v.33134h-1.65752v.85918h1.55186v.32928h-1.55186v.95538h1.72246v.33091h-2.09409Z"/><path class="cls-1" d="m127.88958,36.83389h-2.09409c-.08715,0-.15785-.07072-.15785-.15787v-2.8061c0-.08715.0707-.15785.15785-.15785h2.02914c.08715,0,.15785.0707.15785.15785v.33134c0,.08715-.0707.15787-.15785.15787h-1.49967v.54347h1.39401c.08715,0,.15785.0707.15785.15785v.32928c0,.08715-.0707.15785-.15785.15785h-1.39401v.63967h1.56461c.08715,0,.15787.0707.15787.15787v.33091c0,.08715-.07072.15787-.15787.15787Zm-1.93624-.31572l1.77837-.01521h-1.56459c-.08715,0-.15785-.0707-.15785-.15785v-.95538c0-.08715.0707-.15787.15785-.15787l1.39401-.01357h-1.39401c-.08715,0-.15785-.0707-.15785-.15785v-.85918c0-.08715.0707-.15785.15785-.15785l1.49965-.01564h-1.71343v2.4904Z"/><path class="cls-1" d="m131.05127,36.34511c-.11347.12619-.23721.22076-.3712.28405-.13403.06331-.27874.09455-.43453.09455-.28694,0-.51467-.09661-.68323-.29064-.13649-.15827-.20471-.33505-.20471-.53031,0-.17349.05549-.33011.16731-.46987.1118-.13978.2787-.26269.5007-.36835-.12661-.14552-.21089-.26351-.25283-.35434-.04191-.09044-.0633-.17802-.0633-.26228,0-.16814.06618-.31449.19814-.43905.13238-.12457.29847-.18664.49864-.18664.19158,0,.3482.0588.46988.17595.12211.11758.18294.25858.18294.42302,0,.2668-.17676.49454-.53031.68322l.50358.6413c.05715-.11221.10196-.24212.13401-.39052l.35765.07688c-.06126.24502-.1443.44645-.2487.60471.12866.17101.27502.31448.43822.43083l-.23145.27336c-.13936-.08921-.28283-.22115-.43081-.39586Zm-.21624-.27216l-.63143-.7827c-.18664.11099-.31202.21417-.37738.30913-.06494.09496-.09742.18909-.09742.28242,0,.11347.04521.23144.13607.35394.09044.12252.2187.18376.38436.18376.10362,0,.21048-.03206.32066-.09659.11058-.06455.19897-.14759.26515-.24996Zm-.48426-1.1905c.14922-.08797.24583-.16525.29023-.23144.04399-.0662.06576-.13978.06576-.21994,0-.09578-.03041-.17388-.09084-.23473-.06043-.06044-.13607-.09085-.22692-.09085-.09291,0-.1706.03002-.23227.09002-.06207.06003-.09291.1332-.09291.21994,0,.04357.0111.08921.0333.13688.02262.04812.05591.09868.10072.15213l.15293.17799Z"/><path class="cls-1" d="m131.48209,36.89885c-.02917,0-.05878-.00823-.0851-.02508-.1151-.0736-.23349-.17391-.3527-.29969-.09292.08221-.19242.14839-.29682.19772-.15416.07277-.32312.10977-.50194.10977-.33339,0-.60349-.11591-.80244-.3449-.16157-.18744-.24337-.40081-.24337-.6339,0-.20965.06781-.40122.20184-.56854.09413-.11715.22118-.22405.37984-.31818-.06988-.09126-.12004-.1706-.15209-.23967-.05139-.1114-.07769-.22198-.07769-.32845,0-.21254.08343-.39876.24746-.55374.16238-.15252.36628-.2298.60717-.2298.23269,0,.42755.07399.57924.21992.15374.148.23144.32848.23144.5369,0,.282-.15209.52579-.45343.7268l.22159.28201c.00986-.03494.01891-.07072.02712-.10812.01851-.08467.09744-.13977.18748-.12087l.35764.07688c.04151.00863.0781.03453.10072.0707.02262.03618.02959.08017.01932.12169-.05345.21337-.12415.39918-.21006.55416.10153.12126.215.22692.33791.31448.03577.02589.0596.06537.06496.10893.00533.04399-.00783.08798-.03618.12169l-.23144.27337c-.03085.0366-.07564.05593-.12046.05593Zm-1.6456-1.54242c-.07646.05508-.13936.11386-.18828.17512-.08919.11141-.13277.2331-.13277.37122,0,.15744.05425.29723.16649.42713.08921.10276.19814.17142.32928.20717-.10893-.04029-.20143-.11017-.27337-.2076-.1106-.14922-.16692-.30008-.16692-.44767,0-.12539.04194-.25037.12498-.37163.03496-.05097.0818-.10196.14058-.15374Zm1.21478.83081h.00246c.04562.00083.08837.02097.118.05589.09742.11471.19238.21009.28444.28408l.03085-.03618c-.12333-.10442-.23638-.22486-.33791-.3593-.03988-.05343-.04236-.1262-.00576-.1817.07151-.10851.13277-.24213.18293-.39917l-.04482-.00946c-.02959.0999-.06576.19238-.10851.27585-.02426.0481-.07153.08016-.12539.0855-.05386.0037-.10647-.01727-.13936-.0596l-.50358-.64131c-.02878-.03659-.03988-.08427-.03043-.1299.00289-.01233.00698-.02425.01234-.03577-.05674.01399-.11635-.00533-.15539-.05097l-.15294-.178c-.05508-.06537-.09496-.1262-.12413-.18787-.03209-.06905-.04812-.13729-.04812-.2039,0-.09618.02715-.18498.07936-.26062-.07936.08632-.118.1825-.118.2931,0,.06043.01645.12619.04852.19568.02465.05302.08386.15087.22897.31735.03248.03742.04521.08757.03535.13567-.00287.01438-.00781.02795-.01438.04027.05713-.01355.12169.00577.16072.05428l.63145.7827c.04275.05304.04686.12744.00944.185-.07892.12209-.1858.22323-.31777.3005-.04603.02672-.09248.04934-.13853.06701.03452-.01109.06825-.02425.10153-.03988.11471-.05425.22283-.13729.32106-.24706.03002-.03331.07277-.05221.11758-.05221Zm-.88219-.68816c-.12457.08508-.18418.14839-.21296.18992-.04644.06824-.06948.13155-.06948.19279,0,.07851.03535.16608.10484.25981.10031.13566.28242.17225.49864.04521.05549-.03248.10277-.06948.14347-.11223l-.46452-.57551Zm.52783-1.44252c.01068.00903.02054.01808.03082.02795.08963.09044.13691.21006.13691.34655,0,.10155-.0255.19568-.07566.28118.07523-.09084.11223-.18744.11223-.29105,0-.12087-.04398-.22198-.13442-.30913-.02178-.02097-.04523-.03947-.06988-.0555Zm-.30791.20677c-.0518,0-.09044.0144-.12209.04523s-.04523.06248-.04523.10688c0,.02014.00618.04399.01851.07029.01686.03535.04316.07523.07853.11717l.06289.07318c.08673-.06003.11798-.09744.12826-.11306.02632-.03946.03905-.08262.03905-.13196,0-.06948-.02384-.10236-.04481-.12333-.03083-.03083-.06618-.0444-.1151-.0444Z"/><path class="cls-1" d="m135.1971,35.69228l.37123.09374c-.07771.30502-.21789.5377-.42015.69762-.20225.16033-.44931.24008-.74161.24008-.30256,0-.54839-.06126-.73791-.18457-.18951-.12292-.3338-.30134-.43246-.53483-.09907-.23352-.14839-.48426-.14839-.7523,0-.29229.05589-.54717.16731-.76463.1118-.21746.27049-.38271.47686-.49577.20597-.11304.43287-.16938.68035-.16938.28079,0,.51674.07155.70831.2142.19116.14305.32436.34407.4.60305l-.36587.08634c-.06496-.2043-.1595-.35312-.28325-.44603-.12372-.09333-.27954-.13977-.467-.13977-.21541,0-.39587.0518-.54057.15498-.14472.10318-.24666.24212-.30544.41643-.0588.17388-.08798.35353-.08798.53853,0,.23884.03494.44684.10442.62485s.1776.3112.32436.39918c.14676.08797.30543.13237.47645.13237.20799,0,.38436-.06002.52824-.18006.1443-.12004.24215-.29804.2931-.53401Z"/><path class="cls-1" d="m134.40658,36.88156c-.33256,0-.60963-.0707-.82382-.21006-.21583-.13977-.38108-.34368-.49207-.60595-.10647-.25118-.16074-.52496-.16074-.81355,0-.31572.06207-.59732.18459-.83657.12619-.24542.3083-.43453.5418-.56238.22816-.12496.48262-.18868.75599-.18868.31366,0,.58376.08263.80244.24542.21872.16362.37246.39382.45755.68527.01192.04153.00657.08634-.01521.12376-.0218.0374-.05796.06454-.10031.0744l-.36587.08632c-.07892.01932-.16157-.02712-.18663-.10605-.05469-.17142-.13114-.29517-.22775-.36752-.21006-.15785-.6043-.1369-.82093.01767-.11839.08428-.19897.19486-.24748.33833-.05302.1562-.07975.32064-.07975.48796,0,.21746.03165.4082.09372.5673.05673.14634.14141.25116.25816.32147.27256.1632.61087.14265.82259-.0337.11634-.09661.1969-.24666.24008-.44604.00903-.04194.03453-.0781.07111-.10072.03618-.02262.07975-.02959.12169-.0189l.37122.09371c.0407.01029.07564.03618.09702.07236.02139.03576.02754.07893.01727.11963-.08593.33792-.24583.60101-.47521.78229-.2294.18211-.5118.2742-.83945.2742Zm.00576-2.90145c-.21992,0-.423.05055-.6043.15002-.17963.09825-.31448.23885-.41231.42959-.09949.19403-.15006.42672-.15006.69228,0,.24583.04562.4781.13566.69062.08715.20597.20924.35765.37326.46413.1624.10566.38151.15911.65199.15911.25818,0,.46866-.06744.64337-.20597.13975-.11058.24665-.26515.31859-.46166l-.06002-.0152c-.06537.19527-.1669.35107-.30337.46453-.31162.26021-.80451.29145-1.18683.06165-.17675-.10564-.3083-.26638-.39052-.47686-.07646-.19609-.1151-.42547-.1151-.6824,0-.20186.03246-.4.09618-.58909.06948-.20554.19157-.37205.36339-.49455.17145-.12209.38438-.18417.63226-.18417.22199,0,.4111.05756.56196.17142.11922.08963.21541.21912.28777.38645l.05756-.01357c-.06742-.15087-.16157-.27091-.2857-.36383-.16486-.1225-.36587-.1825-.61377-.1825Z"/><path class="cls-1" d="m136.03163,36.67602v-2.8061h1.24395c.24994,0,.44027.0255.57019.07564.13031.05058.23431.13936.312.26722.0781.12743.11675.26843.11675.423,0,.19896-.06413.36669-.1932.50316-.12868.13649-.32806.22364-.59732.26023.09827.04727.17308.09415.22405.13977.10853.09949.2113.22405.30831.37327l.48796.7638h-.467l-.37122-.58376c-.10853-.16853-.19773-.29721-.26802-.38682-.07031-.08921-.1332-.15169-.1887-.18746-.05549-.03577-.1118-.06043-.16936-.07442-.04194-.00903-.11099-.01355-.20678-.01355h-.43041v1.24601h-.3712Zm.3712-1.56748h.79792c.16979,0,.30256-.01767.39835-.05262.09579-.03537.16853-.09126.21829-.16855.04973-.07729.0744-.16114.0744-.25159,0-.13277-.0481-.24172-.1443-.32723-.09661-.0855-.2487-.12827-.45672-.12827h-.88795v.92825Z"/><path class="cls-1" d="m138.50432,36.83389h-.467c-.05384,0-.10442-.02756-.1332-.07318l-.3712-.58376c-.10483-.16237-.19075-.28735-.25899-.37407-.0736-.09333-.12209-.13444-.15006-.15213-.04068-.0263-.08016-.04398-.12126-.05384-.00986-.00205-.05467-.00905-.16938-.00905h-.27256v1.08816c0,.08715-.0707.15787-.15785.15787h-.3712c-.08715,0-.15787-.07072-.15787-.15787v-2.8061c0-.08715.07072-.15785.15787-.15785h1.24395c.27173,0,.47686.02836.6269.08632.16362.06331.29475.17513.39013.33258.09248.15087.13978.32106.13978.50482,0,.24008-.07936.44562-.23639.6117-.08715.09209-.19897.16525-.33504.21911.10112.10072.19773.22115.28777.35971l.48878.76463c.03083.04849.03289.11016.00533.16072-.02795.05099-.08097.08223-.13853.08223Zm-.38025-.31572h.09209l-.333-.52087c-.0888-.13688-.18376-.25198-.28157-.34202-.01728-.0152-.04647-.0374-.09333-.06496.00453.00576.00903.01151.01397.01728.07235.09291.16485.22526.27667.39917l.32517.51139Zm-1.93459,0h.0555v-1.08816c0-.08717.0707-.15787.15785-.15787h.43041c.10977,0,.18581.00536.24008.01727.07853.01891.1517.05097.22159.09579.01027.00698.02095.01397.03124.02178-.00041-.0107.00041-.02139.00205-.03248.00823-.05345.04316-.09742.09044-.1188-.06579.00699-.13814.01068-.21789.01068h-.79792c-.08715,0-.15785-.0707-.15785-.15785v-.92825c0-.07316.04973-.13442.11717-.15252h-.17267v2.4904Zm1.29329-2.483c.15498.0218.27707.07318.36956.155.12909.1151.19732.26926.19732.44562,0,.12085-.0333.23432-.09948.33709-.06783.10523-.1669.18294-.29434.23021.13484-.03864.23885-.0962.31079-.17225.10112-.10729.15004-.23638.15004-.39506,0-.12663-.03043-.23802-.09331-.34039-.06002-.09866-.13649-.16444-.23474-.20266-.05549-.02139-.15002-.04565-.30584-.05757Zm-.92209.9155h.64007c.18705,0,.29023-.02343.34409-.04316.0633-.02302.10893-.05795.13975-.10564.03331-.05139.04934-.10566.04934-.16608,0-.08756-.02919-.15374-.09124-.20924-.06537-.05756-.18705-.08839-.35191-.08839h-.7301v.61252Z"/><path class="cls-1" d="m138.86403,36.67602v-2.8061h2.02914v.33134h-1.65752v.85918h1.55186v.32928h-1.55186v.95538h1.72246v.33091h-2.09409Z"/><path class="cls-1" d="m140.95812,36.83389h-2.09409c-.08715,0-.15785-.07072-.15785-.15787v-2.8061c0-.08715.0707-.15785.15785-.15785h2.02914c.08715,0,.15785.0707.15785.15785v.33134c0,.08715-.0707.15787-.15785.15787h-1.49967v.54347h1.39401c.08715,0,.15787.0707.15787.15785v.32928c0,.08715-.07072.15785-.15787.15785h-1.39401v.63967h1.56461c.08715,0,.15785.0707.15785.15787v.33091c0,.08715-.0707.15787-.15785.15787Zm-1.93624-.31572l1.77839-.01521h-1.56461c-.08715,0-.15785-.0707-.15785-.15785v-.95538c0-.08715.0707-.15787.15785-.15787l1.39401-.01357h-1.39401c-.08715,0-.15785-.0707-.15785-.15785v-.85918c0-.08715.0707-.15785.15785-.15785l1.49965-.01564h-1.71343v2.4904Z"/><path class="cls-1" d="m141.16284,36.67602l1.07746-2.8061h.4l1.14858,2.8061h-.42302l-.32721-.84971h-1.17327l-.30831.84971h-.39423Zm.80944-1.15228h.95126l-.29269-.77696c-.08921-.23597-.1558-.43-.19897-.58211-.03576.18006-.08632.35889-.15128.53606l-.30831.823Z"/><path class="cls-1" d="m143.78889,36.83389h-.42302c-.06535,0-.12372-.04029-.14717-.10112l-.28858-.7486h-.95413l-.2705.74572c-.0226.0625-.08182.10401-.14841.10401h-.39423c-.05179,0-.10072-.02549-.12992-.06866-.02959-.04275-.03617-.09742-.01725-.14595l1.07746-2.80608c.02345-.06085.0818-.10112.14717-.10112h.4c.06413,0,.12169.03864.14593.09824l1.14858,2.8061c.02014.04852.0144.10401-.01479.14759-.0292.04357-.07853.06988-.13114.06988Zm-.31448-.31572h.07933l-.94015-2.29676c.04111.13113.0962.28735.16485.46946l.29269.77738c.01851.04851.01192.10276-.01767.14512-.01686.02465-.04029.04357-.06701.05508h.05222c.06535,0,.12372.04027.14717.10112l.28858.7486Zm-2.08177,0h.05386l.2705-.74573c.02262-.06248.0818-.10399.14839-.10399h.04401c-.02672-.01151-.04975-.03043-.06701-.05469-.0292-.04275-.03618-.097-.0181-.14551l.30833-.82302c.0374-.10153.06988-.2043.097-.30748l-.83698,2.18042Zm.80738-1.15228h.49537l-.21211-.56362c-.01273-.03328-.02508-.06576-.03659-.097-.00576.01644-.01192.03328-.01767.04973l-.22899.61089Zm.31038-1.33811c.01316.0074.02465.01645.03494.02715l-.0111-.02715h-.02384Zm-.16155,0l-.00124.00372c.00165-.00124.00369-.00246.00576-.00372h-.00452Z"/><path class="cls-1" d="m144.50869,36.67602v-2.47476h-.92452v-.33134h2.22438v.33134h-.92824v2.47476h-.37163Z"/><path class="cls-1" d="m144.88032,36.83389h-.37163c-.08715,0-.15785-.07072-.15785-.15787v-2.3169h-.76667c-.08717,0-.15788-.07072-.15788-.15787v-.33134c0-.08715.07072-.15785.15788-.15785h2.22438c.08717,0,.15787.0707.15787.15785v.33134c0,.08715-.0707.15787-.15787.15787h-.77037v2.3169c0,.08715-.07072.15787-.15787.15787Zm-.21376-.31572h.05591v-2.31691c0-.08715.0707-.15785.15785-.15785l.77039-.01564-1.90868.01564h.76667c.08715,0,.15787.0707.15787.15785v2.31691Z"/><path class="cls-1" d="m146.19663,36.67602v-2.8061h2.02914v.33134h-1.65752v.85918h1.55187v.32928h-1.55187v.95538h1.72246v.33091h-2.09409Z"/><path class="cls-1" d="m148.29072,36.83389h-2.09409c-.08715,0-.15785-.07072-.15785-.15787v-2.8061c0-.08715.0707-.15785.15785-.15785h2.02914c.08715,0,.15787.0707.15787.15785v.33134c0,.08715-.07072.15787-.15787.15787h-1.49965v.54347h1.39401c.08715,0,.15785.0707.15785.15785v.32928c0,.08715-.0707.15785-.15785.15785h-1.39401v.63967h1.56459c.08715,0,.15787.0707.15787.15787v.33091c0,.08715-.07072.15787-.15787.15787Zm-1.93622-.31572l1.77837-.01521h-1.56461c-.08715,0-.15787-.0707-.15787-.15785v-.95538c0-.08715.07072-.15787.15787-.15787l1.39401-.01357h-1.39401c-.08715,0-.15787-.0707-.15787-.15785v-.85918c0-.08715.07072-.15785.15787-.15785l1.49967-.01564h-1.71343v2.4904Z"/><path class="cls-1" d="m78.50646,18.52355c.39372,0,.5908.19623.5908.5887,0,.18012-.05128.37635-.153.58868l-5.4707,10.59814c-.16061.3272-.40473.60523-.73322.83409-.32803.22886-.63106.34329-.90783.34329h-14.70498c-.409,0-.61285-.19623-.61285-.58868,0-.1797.05128-.37594.153-.5887l2.42892-4.71037c.17505-.32677.42299-.60479.74424-.83409.32041-.22886.62684-.34329.91886-.34329h7.3525c.29327,0,.60138-.11402.92392-.34246.32252-.22844.57174-.50562.74805-.83153l1.20957-2.34884c.09198-.21403.13818-.41195.13818-.59376,0-.39543-.19667-.59379-.59081-.59379-.28906,0-.59251.11573-.90995.34669-.31788.23098-.5637.51155-.73703.8413l-.60988,1.17949c-.16105.32381-.40604.59928-.73493.82561-.32886.22675-.63275.33948-.91036.33948h-5.26516c-.40941,0-.61412-.19623-.61412-.5887,0-.17968.05084-.37592.15343-.58868l1.22527-2.35519c.1602-.32676.40475-.60479.7332-.83409.32806-.22885.63786-.34329.92987-.34329h14.70499Zm-10.55151,8.23998c.10468-.21191.15725-.40771.15725-.58741,0-.39162-.20429-.58743-.61244-.58743-.29202,0-.59844.11485-.91926.3433-.32084.22929-.56158.5073-.72219.8345l-1.22527,2.35475c-.10216.21277-.153.409-.153.58871,0,.39288.19663.5891.5908.5891.29202,0,.60184-.11442.93073-.34329.32803-.22846.573-.50647.73364-.83324l1.21975-2.359Z"/><path class="cls-1" d="m96.27483,18.52355c.40814,0,.61285.19623.61285.5887,0,.18012-.0585.37635-.17505.58868l-1.20365,2.35519c-.16063.3272-.40475.60521-.73322.83409-.32804.22929-.63827.34329-.92987.34329h-5.2516c-.39415,0-.59081-.19623-.59081-.5887,0-.17968.05086-.37592.153-.58868l.61285-1.17738c.10172-.21233.153-.40856.153-.5891,0-.39247-.20429-.58871-.61285-.58871-.27761,0-.58021.11486-.90868.3433-.32847.22888-.57301.50647-.73364.83324l-4.87144,9.41141c-.16061.33016-.40431.61073-.73193.8413-.32762.23097-.637.34625-.92775.34625h-5.24143c-.3933,0-.58953-.19623-.58953-.58868,0-.1797.05128-.37594.153-.5887l5.44867-10.59814c.17502-.32676.42297-.60479.74424-.83409.32041-.22885.62682-.34329.91883-.34329h14.70499Z"/><path class="cls-1" d="m130.93596,18.52355c.40814,0,.61285.19623.61285.5887,0,.18012-.0585.37635-.17504.58868l-5.44909,10.59814c-.16063.3272-.40475.60523-.73281.83409-.32845.22886-.63826.34329-.92987.34329h-14.70538c-.39374,0-.59081-.19623-.59081-.58868,0-.1797.05128-.37594.15341-.5887l5.44869-10.59814c.17504-.32676.42297-.60479.7438-.83409.32084-.22885.62726-.34329.91928-.34329h5.2516c.40856,0,.61285.19667.61285.58997,0,.18012-.05723.37677-.17123.58997l-4.83626,9.4199c-.11908.21233-.17885.40814-.17885.58741,0,.39205.20429.58827.61285.58827.29161,0,.59803-.11442.9193-.34373.32041-.22886.56876-.50647.7438-.83409l4.83624-9.42032c.17504-.32676.42299-.60479.7438-.83409.32084-.22885.62728-.34329.91928-.34329h5.2516Z"/><path class="cls-1" d="m136.41047,25.93114c-.32125.22802-.56961.50478-.74465.8307l-1.20536,2.34585c-.10341.21531-.1547.41366-.1547.59549,0,.39713.20429.5959.61285.5959.2916,0,.59803-.11442.91886-.34373.32083-.22886.5692-.50647.74423-.83409l.61244-1.17738c.16063-.3272.40135-.60479.72219-.83407.32081-.22888.62726-.3433.91926-.3433h5.25161c.40814,0,.61285.19623.61285.5887,0,.18012-.0513.37635-.153.58868l-1.2257,2.35519c-.16064.3272-.40475.60523-.73281.83409-.32845.22886-.63869.34329-.93029.34329h-14.70496c-.39374,0-.59083-.19623-.59083-.58868,0-.1797.05128-.37594.15343-.5887l5.4703-10.59814c.16063-.32676.40136-.60479.72219-.83409.32084-.22885.62726-.34329.91926-.34329h14.70499c.40814,0,.61241.19623.61241.5887,0,.18012-.05127.37635-.15341.58868l-2.43232,4.71039c-.17546.3272-.42382.60521-.74509.83407-.32125.22929-.62853.3433-.92055.3433h-7.36265c-.29244,0-.59886.11444-.92055.34244Zm1.08329-2.70187c-.09789.21318-.14621.41025-.14621.59081,0,.39415.20429.59124.61285.59124.27674,0,.57979-.11442.90783-.34373.32847-.22886.57259-.50647.73322-.83409l1.22527-2.35475c.10213-.21233.15343-.40856.15343-.5891,0-.39247-.19794-.58871-.59252-.58871-.29285,0-.60394.11444-.93325.34246-.3293.22802-.57428.50478-.73491.8307l-1.2257,2.35518Z"/><path class="cls-1" d="m158.35436,15.70216c.08731.16401.13097.38485.13097.66244,0,.40898-.08731.78492-.26235,1.12865l-6.58665,12.80582c-.17504.3272-.4234.60523-.74382.83409-.32124.22886-.62767.34329-.91926.34329h-5.2516c-.40856,0-.61283-.19623-.61283-.58868,0-.1797.05806-.37594.17502-.5887l6.67394-12.95289,3.47961-6.77099c.21869-.42511.4518-.63786.70014-.63786.13139,0,.23311.07374.30643.22082l2.91039,5.54402Z"/><path class="cls-1" d="m139.7195,15.8441c.08147-.1592-.03414-.34826-.21298-.34826h-23.2124c-.12918-.09604-.2014-.24888-.2014-.4736,0-.1797.05086-.37592.15299-.5887l.35739-.62036c.1602-.32676.40477-.60479.73322-.83407.1303-.09091.2569-.15857.38149-.21338h25.00741c.15616,0,.29916-.08745.37031-.22646l.39111-.76427c.04067-.07942.02734-.16701-.01984-.2299-.03877-.05169-.10042-.08666-.17377-.08666h-31.78852c-.292,0-.59845.11442-.91928.34329-.10694.07642-.23987.22087-.36959.3795-.13271.16227-.25589.3319-.37047.50722-.13282.20319-.25411.41407-.36543.63004l-.34512.66957-9.16923,17.78962c-.47459.98255-.58393,1.42417-.58393,1.88232,0,.26108.04409.46579.13139.61327l2.88836,5.54404c.08773.14706.19707.2208.32847.2208.24793,0,.48146-.21276.70014-.63785l10.99983-21.43412c.1602-.3272.40473-.6048.73322-.83409.27296-.19044.53257-.29693.78055-.32889h23.02074c.16238,0,.31112-.09096.3851-.23553l.37026-.72352Z"/><path class="cls-1" d="m107.91795,15.61094c-.40897,0-.61285-.19624-.61285-.5887,0-.1797.05088-.37592.153-.5887l.97024-1.79774c.10926-.2281.16034-.43762.15214-.62855-.01327-.30973-.28052-.54883-.59052-.54883h-5.25103c-.29202,0-.60182.11442-.93031.34329-.32803.22929-.57257.50733-.73278.83409l-1.39762,2.65378c-.06521.12666-.19571.20625-.33814.20625h-17.15963c-.11651,0-.22841.03133-.32552.08789-.10265.05978-.18876.14778-.24633.25673l-.33632.63658c-.0782.14803.02912.32611.19654.32611h16.80675c.10462,0,.19563.04068.26241.10475.11491.11021.15812.28954.07572.44962l-7.69138,15.00219c-.21912.40856-.32847.85018-.32847,1.32445,0,.24539.04407.44967.13139.61368l2.88836,5.51946c.08773.16317.19707.24538.32847.24538.24792,0,.48146-.21274.70014-.63783l10.99983-21.45872c.17502-.3272.42297-.6048.7438-.83409.32084-.22886.62726-.3433.91926-.3433.24795,0,.52513-.05721.83157-.17207.37887-.14706.56876-.3433.56876-.58868,0-.27805-.26235-.41705-.78748-.41705Z"/></svg>