<?xml version="1.0" encoding="UTF-8"?><svg id="Layer_1" xmlns="http://www.w3.org/2000/svg" viewBox="0 0 215 50"><defs><style>.cls-1{fill:#d2dacb;stroke-width:0px;}</style></defs><polygon class="cls-1" points="69.33944 35.11409 74.41539 35.11409 74.7475 33.55811 69.67256 33.55811 69.33944 35.11409"/><path class="cls-1" d="m64.96688,40.02475c-.06151-.0759-.10803-.16143-.16136-.24259h-8.60442c.05335.08116.09982.16672.16134.24259.65499.83269,1.70545,1.24883,3.15222,1.24883h8.60438c-1.44631,0-2.4972-.41615-3.15217-1.24883Z"/><path class="cls-1" d="m64.40242,36.67012h-8.60447c-.08265.41936-.13148.81753-.13148,1.18492,0,.12929.01561.24842.02577.3711h8.60439c-.01017-.12268-.02573-.24184-.02573-.3711,0-.36742.04905-.76562.13151-1.18492Z"/><path class="cls-1" d="m70.02336,36.68809h3.60252c.06118,0,.11278-.00862.1636-.01797h-3.60237c-.05084.00935-.10253.01797-.16376.01797Z"/><polygon class="cls-1" points="74.46231 17.99791 74.12917 19.55395 77.73168 19.55395 78.06469 17.99791 74.46231 17.99791"/><path class="cls-1" d="m68.83661,24.22197h-8.60447c.35857.53035.85704,1.04902,1.49855,1.55602h8.60485c-.64155-.507-1.14006-1.02567-1.49893-1.55602Z"/><path class="cls-1" d="m73.21652,27.62014c-.13241-.07523-.30276-.17156-.50629-.28613h-8.60482c.20367.11456.37412.2109.50622.28613.54568.34144.97575.6622,1.28977.96227.10391.09889.1949.20216.27946.3076h8.59585c-.08416-.10463-.16768-.20948-.27088-.3076-.31403-.30007-.74409-.62083-1.28932-.96227Z"/><path class="cls-1" d="m61.33937,11.77387c-.24197.47141-.43198.98992-.56937,1.55602h8.60444c.13735-.56606.32742-1.08458.56946-1.55602h-8.60452Z"/><polygon class="cls-1" points="56.44994 33.55811 56.12027 35.11409 64.72475 35.11409 65.05432 33.55811 56.44994 33.55811"/><polygon class="cls-1" points="75.12855 14.88591 74.79542 16.44191 78.3977 16.44191 78.73071 14.88591 75.12855 14.88591"/><polygon class="cls-1" points="60.43388 14.88591 60.10593 16.44191 68.7104 16.44191 69.03832 14.88591 60.43388 14.88591"/><path class="cls-1" d="m75.0587,8.72642h-8.60485c-1.44635,0-2.67492.41635-3.68443,1.24863-.09333.07733-.18039.16029-.26797.24283h8.60452c.08754-.08254.17458-.16551.26788-.24283,1.00992-.83227,2.23808-1.24863,3.68484-1.24863Z"/><path class="cls-1" d="m59.35768,21.10995c.00862.5535.07082,1.0737.19399,1.55604h8.60445c-.12313-.48233-.18537-1.00253-.19401-1.55604h-8.60444Z"/><path class="cls-1" d="m68.38246,17.99791h-8.60442l-.1815.86108c-.05091.23759-.09106.46796-.12615.69495h8.60444c.03509-.227.07523-.45739.12612-.69495l.18152-.86108Z"/><polygon class="cls-1" points="57.10911 30.44605 56.77951 32.00205 65.38393 32.00205 65.71356 30.44605 57.10911 30.44605"/><path class="cls-1" d="m75.07959,32.00205l.18384-.86126c.05439-.23166.08185-.45706.08185-.67525,0-.00671-.00189-.01278-.00198-.0195h-5.00453l-.33308,1.556h5.0739Z"/><polygon class="cls-1" points="106.41218 17.99791 105.86142 19.55395 109.46363 19.55395 110.01444 17.99791 106.41218 17.99791"/><polygon class="cls-1" points="92.81124 17.99791 92.26239 19.55395 95.86493 19.55395 96.41378 17.99791 92.81124 17.99791"/><polygon class="cls-1" points="84.0503 17.99791 83.93776 19.55395 87.53984 19.55395 87.65239 17.99791 84.0503 17.99791"/><polygon class="cls-1" points="101.47437 17.99791 100.61509 17.99791 100.11827 19.55395 101.30592 19.55395 101.47437 17.99791"/><polygon class="cls-1" points="84.27547 14.88591 84.16289 16.44191 87.76494 16.44191 87.87751 14.88591 84.27547 14.88591"/><polygon class="cls-1" points="84.50051 11.77387 84.38798 13.32989 87.99005 13.32989 88.1026 11.77387 84.50051 11.77387"/><polygon class="cls-1" points="109.69394 8.72642 109.16602 10.21787 112.76849 10.21787 113.29646 8.72642 109.69394 8.72642"/><polygon class="cls-1" points="108.61526 11.77387 108.0645 13.32989 111.66688 13.32989 112.2177 11.77387 108.61526 11.77387"/><polygon class="cls-1" points="96.08141 8.72642 95.55541 10.21787 99.15789 10.21787 99.68395 8.72642 96.08141 8.72642"/><polygon class="cls-1" points="95.00657 11.77387 94.45775 13.32989 98.06024 13.32989 98.60909 11.77387 95.00657 11.77387"/><polygon class="cls-1" points="93.90889 14.88591 93.36006 16.44191 96.96258 16.44191 97.51142 14.88591 93.90889 14.88591"/><polygon class="cls-1" points="101.81132 14.88591 101.60871 14.88591 101.11189 16.44191 101.64285 16.44191 101.81132 14.88591"/><polygon class="cls-1" points="107.51372 14.88591 106.96291 16.44191 110.56524 16.44191 111.11607 14.88591 107.51372 14.88591"/><polygon class="cls-1" points="82.69974 36.67012 82.58723 38.22614 86.18927 38.22614 86.30182 36.67012 82.69974 36.67012"/><polygon class="cls-1" points="105.1903 24.91823 105.09664 25.77798 107.29299 25.77798 107.56473 24.91823 107.81117 24.22197 105.2405 24.22197 105.1903 24.91823"/><polygon class="cls-1" points="104.07952 35.11409 104.34204 35.11409 104.83384 33.55811 104.24905 33.55811 104.07952 35.11409"/><polygon class="cls-1" points="91.16581 28.89002 92.71749 28.89002 93.20933 27.33402 91.33531 27.33402 91.16581 28.89002"/><polygon class="cls-1" points="97.55891 27.33402 97.01007 28.89002 100.43781 28.89002 100.54798 27.33402 97.55891 27.33402"/><polygon class="cls-1" points="96.28465 36.67012 96.17446 38.22614 99.77689 38.22614 99.88705 36.67012 96.28465 36.67012"/><polygon class="cls-1" points="104.75761 28.89002 106.30933 28.89002 106.80116 27.33402 104.92712 27.33402 104.75761 28.89002"/><polygon class="cls-1" points="96.50503 33.55811 96.39486 35.11409 99.99719 35.11409 100.10736 33.55811 96.50503 33.55811"/><polygon class="cls-1" points="90.82674 32.00205 91.73385 32.00205 92.22567 30.44605 90.99628 30.44605 90.82674 32.00205"/><polygon class="cls-1" points="96.7254 30.44605 96.61517 32.00205 100.21751 32.00205 100.32767 30.44605 96.7254 30.44605"/><polygon class="cls-1" points="83.37505 27.33402 83.26248 28.89002 86.86455 28.89002 86.97711 27.33402 83.37505 27.33402"/><polygon class="cls-1" points="104.41856 32.00205 105.32568 32.00205 105.81749 30.44605 104.58808 30.44605 104.41856 32.00205"/><polygon class="cls-1" points="90.48772 35.11409 90.75018 35.11409 91.24202 33.55811 90.65725 33.55811 90.48772 35.11409"/><polygon class="cls-1" points="94.76727 22.66598 95.31611 21.10995 91.86811 21.10995 91.75794 22.66598 94.76727 22.66598"/><polygon class="cls-1" points="101.13743 21.10995 99.62146 21.10995 99.12464 22.66598 100.96897 22.66598 101.13743 21.10995"/><polygon class="cls-1" points="108.362 22.66598 108.91282 21.10995 105.46477 21.10995 105.35262 22.66598 108.362 22.66598"/><polygon class="cls-1" points="83.82526 21.10995 83.71268 22.66598 87.31476 22.66598 87.42732 21.10995 83.82526 21.10995"/><polygon class="cls-1" points="91.5985 24.91823 91.50484 25.77798 93.70113 25.77798 93.97288 24.91823 94.21845 24.22197 91.64781 24.22197 91.5985 24.91823"/><polygon class="cls-1" points="82.92486 33.55811 82.81227 35.11409 86.41436 35.11409 86.52693 33.55811 82.92486 33.55811"/><polygon class="cls-1" points="84.72093 8.72642 84.61308 10.21787 88.21513 10.21787 88.32302 8.72642 84.72093 8.72642"/><polygon class="cls-1" points="83.60011 24.22197 83.48764 25.77798 87.08968 25.77798 87.20219 24.22197 83.60011 24.22197"/><polygon class="cls-1" points="100.70739 25.08199 100.80051 24.22197 98.62782 24.22197 98.35325 25.08199 98.10776 25.77798 100.65813 25.77798 100.70739 25.08199"/><polygon class="cls-1" points="83.14997 30.44605 83.03745 32.00205 86.63948 32.00205 86.75204 30.44605 83.14997 30.44605"/><polygon class="cls-1" points="96.06422 39.78216 95.95859 41.27358 99.56115 41.27358 99.66675 39.78216 96.06422 39.78216"/><polygon class="cls-1" points="82.47465 39.78216 82.36679 41.27358 85.96885 41.27358 86.07674 39.78216 82.47465 39.78216"/><polygon class="cls-1" points="115.61832 21.10995 115.28758 22.66598 118.88981 22.66598 119.22058 21.10995 115.61832 21.10995"/><polygon class="cls-1" points="112.31048 36.67012 111.97969 38.22614 115.58223 38.22614 115.91296 36.67012 112.31048 36.67012"/><polygon class="cls-1" points="117.60303 11.77387 117.27225 13.32989 120.87434 13.32989 121.20511 11.77387 117.60303 11.77387"/><polygon class="cls-1" points="114.95676 24.22197 114.62599 25.77798 118.22828 25.77798 118.55906 24.22197 114.95676 24.22197"/><polygon class="cls-1" points="111.64893 39.78216 111.33188 41.27358 114.93442 41.27358 115.25145 39.78216 111.64893 39.78216"/><polygon class="cls-1" points="113.63365 30.44605 113.30288 32.00205 116.90525 32.00205 117.23598 30.44605 113.63365 30.44605"/><polygon class="cls-1" points="116.27985 17.99791 115.94909 19.55395 119.55134 19.55395 119.88209 17.99791 116.27985 17.99791"/><polygon class="cls-1" points="114.29518 27.33402 113.96441 28.89002 117.56676 28.89002 117.89753 27.33402 114.29518 27.33402"/><polygon class="cls-1" points="118.25085 8.72642 117.93382 10.21787 121.53587 10.21787 121.85292 8.72642 118.25085 8.72642"/><polygon class="cls-1" points="116.94143 14.88591 116.61062 16.44191 120.21285 16.44191 120.5436 14.88591 116.94143 14.88591"/><polygon class="cls-1" points="112.97213 33.55811 112.6413 35.11409 116.24374 35.11409 116.57447 33.55811 112.97213 33.55811"/><polygon class="cls-1" points="121.3314 39.78216 121.01437 41.27358 124.61646 41.27358 124.93349 39.78216 121.3314 39.78216"/><polygon class="cls-1" points="123.316 30.44605 122.98523 32.00205 126.58742 32.00205 126.91818 30.44605 123.316 30.44605"/><polygon class="cls-1" points="127.28506 11.77387 126.95431 13.32989 130.55678 13.32989 130.88755 11.77387 127.28506 11.77387"/><polygon class="cls-1" points="126.62354 14.88591 126.29278 16.44191 129.89524 16.44191 130.22601 14.88591 126.62354 14.88591"/><polygon class="cls-1" points="123.97748 27.33402 123.64676 28.89002 127.24899 28.89002 127.57978 27.33402 123.97748 27.33402"/><polygon class="cls-1" points="122.65448 33.55811 122.3237 35.11409 125.92584 35.11409 126.25663 33.55811 122.65448 33.55811"/><polygon class="cls-1" points="125.30052 21.10995 124.96976 22.66598 128.57208 22.66598 128.90288 21.10995 125.30052 21.10995"/><polygon class="cls-1" points="125.96199 17.99791 125.63124 19.55395 129.23366 19.55395 129.56443 17.99791 125.96199 17.99791"/><polygon class="cls-1" points="127.93287 8.72642 127.61584 10.21787 131.21832 10.21787 131.53539 8.72642 127.93287 8.72642"/><polygon class="cls-1" points="124.63899 24.22197 124.30822 25.77798 127.91053 25.77798 128.24132 24.22197 124.63899 24.22197"/><polygon class="cls-1" points="121.99297 36.67012 121.66219 38.22614 125.2643 38.22614 125.59507 36.67012 121.99297 36.67012"/><polygon class="cls-1" points="142.97799 24.22197 142.64739 25.77798 146.24987 25.77798 146.58046 24.22197 142.97799 24.22197"/><polygon class="cls-1" points="143.63904 21.10995 143.30852 22.66598 146.91102 22.66598 147.2416 21.10995 143.63904 21.10995"/><polygon class="cls-1" points="142.31677 27.33402 141.98624 28.89002 145.58876 28.89002 145.91933 27.33402 142.31677 27.33402"/><polygon class="cls-1" points="139.67222 39.78216 139.35543 41.27358 142.95795 41.27358 143.27478 39.78216 139.67222 39.78216"/><polygon class="cls-1" points="144.30017 17.99791 143.96957 19.55395 147.57217 19.55395 147.90273 17.99791 144.30017 17.99791"/><polygon class="cls-1" points="141.65571 30.44605 141.32509 32.00205 144.92762 32.00205 145.2582 30.44605 141.65571 30.44605"/><polygon class="cls-1" points="140.99451 33.55811 140.66398 35.11409 144.26651 35.11409 144.59707 33.55811 140.99451 33.55811"/><polygon class="cls-1" points="144.96134 14.88591 144.63077 16.44191 148.23329 16.44191 148.56386 14.88591 144.96134 14.88591"/><polygon class="cls-1" points="144.68669 10.21787 145.00484 8.72642 143.91978 8.72642 143.60161 10.21787 144.68669 10.21787"/><polygon class="cls-1" points="143.26966 11.77387 142.93774 13.32989 144.02281 13.32989 144.35474 11.77387 143.26966 11.77387"/><polygon class="cls-1" points="140.33345 36.67012 140.00282 38.22614 143.60534 38.22614 143.93592 36.67012 140.33345 36.67012"/><path class="cls-1" d="m82.24352,20.08714l1.3919-6.57073c.10931-.49127.16374-.94184.16374-1.35119,0-.87321-.23213-1.60332-.69594-2.19017-.65502-.83227-1.69915-1.24863-3.13195-1.24863h-4.91257c-1.44676,0-2.67492.41635-3.68484,1.24863-.0933.07733-.18034.16029-.26788.24283-.47044.4435-.85737.96255-1.16209,1.556-.24203.47144-.4321.98996-.56946,1.55602-.01523.06272-.03355.12261-.04748.18651l-.28864,1.36951-.32791,1.556-.32794,1.556-.18152.86108c-.05089.23756-.09103.46796-.12612.69495-.07779.50327-.11949.98241-.11949,1.43382,0,.04213.00614.08045.00678.12218.00864.5535.07087,1.0737.19401,1.55604.12615.4942.31027.95242.55678,1.37187.03773.06166.0822.12279.12371.18412.35887.53035.85739,1.04902,1.49893,1.55602.38503.30425.81781.60462,1.30463.9006l.77781.49125c.10544.0591.20113.11294.29225.16419.20353.11456.37388.2109.50629.28613.54523.34144.97528.6622,1.28932.96227.1032.09812.18672.20297.27088.3076.36803.45746.56245.97417.56658,1.55604.00009.00671.00198.01278.00198.0195,0,.21818-.02746.44359-.08185.67525l-.18384.86126-.33209,1.55605-.33211,1.55598-.25732,1.20558c-.03296.1977-.15888.3119-.36858.35046-.05082.00935-.10242.01797-.1636.01797h-4.13519c-.27303,0-.40936-.09491-.40936-.28656v-.08187l.25811-1.20558.33311-1.55598.33313-1.55605.33308-1.556.1142-.5334h-4.62644l-.11297.5334-.32963,1.556-.32961,1.55605-.32958,1.55598-.29008,1.36933c-.01434.06449-.01981.12339-.03224.1867-.08246.4193-.13151.8175-.13151,1.18492,0,.12926.01556.24842.02573.3711.04934.59657.21914,1.11503.50889,1.55602.05334.08116.09986.16669.16136.24259.65497.83269,1.70587,1.24883,3.15217,1.24883h4.93369c1.43283,0,2.65376-.41615,3.66372-1.24883,1.03696-.84573,1.71984-2.02621,2.04733-3.54133l1.12556-5.34262c.16376-.73687.24562-1.42562.24562-2.06713,0-1.15975-.26585-2.16296-.79805-3.00916-.53218-.88714-1.50795-1.74008-2.92727-2.55885l-.79854-.4503c-.31398-.19121-.56635-.34102-.75712-.45035-.55961-.34097-.98968-.66174-1.28975-.96202-.54615-.5457-.81876-1.20068-.81876-1.96526,0-.2591.02699-.53217.08187-.81874l1.10532-5.17887c.04095-.2319.21818-.34796.53221-.34796h4.11446c.27308,0,.4094.08884.4094.26609v.08187l-.25804,1.20578-.33301,1.556-.33301,1.556-.33301,1.55604-.11412.53319h4.62596Zm-2.88476-6.32781c.00555-.02604.00838-.05257.00838-.0792v-.08187c0-.10763-.03799-.64449-.78778-.64449h-4.11446c-.71143,0-.86978.46199-.90226.64739l-1.1069,5.18666c-.05882.30706-.08862.60649-.08862.88993,0,.86528.31279,1.61655.92944,2.23272.3199.32009.77765.6625,1.36931,1.02288.18858.10808.43807.25621.75941.45163l.7953.44848c1.35632.78241,2.29565,1.59855,2.79605,2.43249.49103.78074.73998,1.72541.73998,2.80773,0,.61062-.07963,1.2785-.2375,1.98913l-1.12515,5.34068c-.3073,1.42166-.95215,2.54138-1.9182,3.32932-.93549.7713-2.08713,1.16239-3.423,1.16239h-4.93369c-1.33643,0-2.27024-.36125-2.85815-1.10858-.41153-.50806-.61157-1.13986-.61157-1.93156,0-.39382.05205-.82766.15552-1.2932l1.32834-6.27076h3.85181l-1.27367,5.94938c-.00557.02604-.00838.05259-.00838.07922v.08187c0,.32144.20695.66496.78775.66496h4.13519c.49552,0,.83398-.25595.90226-.66786l1.10362-5.17129c.06099-.25952.09189-.51583.09189-.7618,0-.82759-.32201-1.55342-.95643-2.1567-.33044-.31582-.78463-.6554-1.36383-1.01775-.19045-.10818-.45408-.25718-.79172-.44648l-.77493-.48939c-1.33367-.81082-2.27612-1.65695-2.7976-2.50908-.46811-.79652-.70543-1.75823-.70543-2.85838,0-.62521.07982-1.31473.23749-2.05074l1.12546-5.33999c.30748-1.4095.95303-2.53007,1.91784-3.33.93586-.77118,2.09466-1.16221,3.4442-1.16221h4.91257c1.32259,0,2.24979.3612,2.83509,1.10485.41342.52311.61441,1.16275.61441,1.95553,0,.38069-.05207.80764-.15557,1.27276l-1.32833,6.27076h-3.85137l1.27326-5.94941Z"/><path class="cls-1" d="m114.13593,8.72642h-.83947l-.52797,1.49146-.5508,1.556-.55081,1.55602-.55081,1.55602-.55083,1.556-.5508,1.556-.55081,1.55604-.55081,1.556-.55081,1.55604-.55083,1.55598-.24644.69627-.27175.85975-.49182,1.55604-.49184,1.556-.49184,1.55604-.4918,1.556-.49184,1.55605-.4918,1.55598-.40056,1.2672.13804-1.2672.16953-1.55598.16951-1.55605.16951-1.556.16953-1.55604.16951-1.556.16951-1.55604.09366-.85975.0502-.69627.11212-1.55598.11215-1.55604.8925-12.38353h-6.67332l-.52606,1.49146-.5488,1.556-.54885,1.55602-.54881,1.55602-.54884,1.556-.5488,1.556-.54885,1.55604-.54882,1.556-.54884,1.55604-.54882,1.55598-.24557.69627-.27175.85975-.4918,1.55604-.49184,1.556-.49182,1.55604-.49182,1.556-.49182,1.55605-.49184,1.55598-.40052,1.2672.13805-1.2672.16953-1.55598.1695-1.55605.16953-1.556.16953-1.55604.1695-1.556.16953-1.55604.09366-.85975.04931-.69627.11012-1.55598.11018-1.55604.87666-12.38353h-4.42175l-.10789,1.49146-.11254,1.556-.11255,1.55602-.11254,1.55602-.11257,1.556-.11255,1.556-.11255,1.55604-.11252,1.556-.11255,1.55604-.11257,1.55598-.11252,1.55602-.11257,1.55604-.11255,1.556-.11251,1.55604-.11256,1.556-.11255,1.55605-.11257,1.55598-.11254,1.55604-.11255,1.55602-.11254,1.55602-.10789,1.49142h6.67333l4.3679-12.38357.54884-1.556.54885-1.55604.24549-.69599.27457-.86002.49682-1.55598.49682-1.55604.49681-1.556.49682-1.55604.4968-1.556.49682-1.556.30656-.96016-.10395.96016-.16847,1.556-.16847,1.556-.16846,1.55604-.16849,1.556-.16846,1.55604-.16846,1.55598-.09313.86002-.04926.69599-.11014,1.55604-.11018,1.556-.11014,1.55604-.11016,1.556-.11014,1.55605-.11018,1.55598-.11014,1.55604-.11016,1.55602-.11014,1.55602-.1056,1.49142h6.6733l11.50401-32.54717h-3.60252Zm-13.05235,16.39634l1.20788-11.15624c.02094-.19315-.1078-.37075-.29788-.41092-.02632-.00559-.05259-.00827-.07857-.00827-.16148,0-.30929.10391-.36019.26335l-3.55843,11.14547-5.62197,15.93905h-5.99877l2.29938-31.79035h3.66359l-1.1163,15.77243-1.24882,11.46304c-.02107.19338.10792.37126.29828.41129.02617.00548.05232.00817.07814.00817.1619,0,.30999-.10444.36054-.26441l3.61928-11.45125,5.62197-15.93928h5.99891l-1.13647,15.77243-1.24886,11.46304c-.02104.19338.10794.37126.29828.41129.02618.00548.05235.00817.07814.00817.16192,0,.31001-.10444.36056-.26441l3.61916-11.45085,5.64247-15.93967h3.63945l-11.2365,31.79035h-5.99959l1.11632-15.77243Z"/><path class="cls-1" d="m122.89707,8.72642h-1.04414l-.31705,1.49146-.33076,1.556-.33077,1.55602-.33074,1.55602-.33076,1.556-.33076,1.556-.33076,1.55604-.33076,1.556-.33077,1.55604-.33076,1.55598-.33077,1.55602-.33076,1.55604-.33077,1.556-.33077,1.55604-.33074,1.556-.33077,1.55605-.33074,1.55598-.33077,1.55604-.33074,1.55602-.33077,1.55602-.31704,1.49142h4.64668l6.91849-32.54717h-3.60252Zm3.13523.37842l-6.75761,31.79035h-3.87297l6.75761-31.79035h3.87297Z"/><path class="cls-1" d="m143.60161,10.21787l.31816-1.49146h-12.38438l-.31707,1.49146-.33077,1.556-.33077,1.55602-.33077,1.55602-.33077,1.556-.33081,1.556-.33077,1.55604-.33077,1.556-.33081,1.55604-.33076,1.55598-.33079,1.55602-.33076,1.55604-.33079,1.556-.33081,1.55604-.33076,1.556-.33079,1.55605-.33079,1.55598-.33077,1.55604-.33077,1.55602-.33081,1.55602-.31704,1.49142h4.62641l2.96823-13.98095h7.75796l.9825-4.58547h-7.75794l1.98526-9.37499h7.75839l.00049-.00227.33192-1.55602.33195-1.556Zm-11.39052,16.69637c-.17871,0-.33303.12501-.37015.29983l-2.90457,13.68111h-3.85264l6.75806-31.79035h11.61034l-.82107,3.84893h-7.4522c-.17876,0-.33317.12513-.37016.3l-1.98531,9.37499c-.02362.11163.00439.22797.07621.31664.07184.08865.17989.14015.294.14015h7.28986l-.82032,3.8287h-7.45206Z"/><path class="cls-1" d="m155.731,8.72642h-10.72617l-.31815,1.49146-.33195,1.556-.33193,1.55602-.00049.00227h4.87162l-.33008,1.55375-.33056,1.556-.33056,1.556-.33056,1.55604-.33056,1.556-.33058,1.55604-.33056,1.55598-.33058,1.55602-.33055,1.55604-.33056,1.556-.33056,1.55604-.33058,1.556-.33055,1.55605-.33056,1.55598-.33058,1.55604-.33058,1.55602-.33056,1.55602-.31683,1.49142h4.60572l5.93599-27.94142h4.85137l.9825-4.60575h-3.60252Zm-2.23135,4.22735c-.17867,0-.33301.12499-.37015.29978l-5.87228,27.64164h-3.83203l5.8389-27.48438c.02371-.11169-.00425-.22809-.07611-.31679-.07184-.0887-.1799-.14025-.29405-.14025h-4.40397l.82109-3.84893h13.55487l-.82109,3.84893h-4.54518Z"/></svg>