<?xml version="1.0" encoding="UTF-8"?><svg id="Layer_1" xmlns="http://www.w3.org/2000/svg" viewBox="0 0 215 50"><defs><style>.cls-1{fill:#d2dacb;stroke-width:0px;}</style></defs><path class="cls-1" d="m54.12669,39.03619h-1.2716l-2.75556-4.79103c-.04238-.07324-.11174-.19223-.20731-.357-.04239-.07324-.10828-.18866-.19692-.34625v5.49428h-1.05312v-7.49976h1.44696l2.54284,4.41729c.02117.03662.17532.30607.46278.80794v-5.22523h1.03193v7.49976Z"/><path class="cls-1" d="m60.44121,39.03619h-4.71845v-7.49976h4.67068v1.11556h-3.36207v2.03253h2.70238v1.08811h-2.70238v2.09862h3.40985v1.16493Z"/><path class="cls-1" d="m66.88291,39.03619h-1.52671l-1.60647-2.9559-1.70241,2.9559h-1.21805l2.29815-3.9063-1.9737-3.59346h1.52132l1.34058,2.49461,1.42035-2.49461h1.22345l-2.02148,3.42311,2.24498,4.07665Z"/><path class="cls-1" d="m72.72384,31.53643v4.81847c0,.65191-.0709,1.15379-.21269,1.50561-.14179.35144-.41579.6547-.82193.90902-.40616.25471-.90169.38206-1.48663.38206-.59265,0-1.07934-.10984-1.46044-.32952-.3811-.22009-.65506-.52138-.82191-.90385-.16687-.38287-.25009-.87081-.25009-1.46421v-4.91758h1.33519v4.81847c0,.65948.13409,1.09249.4019,1.29945.26742.20695.57878.31043.9333.31043.40808,0,.73445-.11065.97914-.33232.24469-.22168.36684-.64755.36684-1.27757v-4.81847h1.03732Z"/><path class="cls-1" d="m73.4583,37.22851l1.27124-.28019c.15257.74384.73754,1.11556,1.75558,1.11556.46434,0,.82193-.09552,1.07163-.28576.25007-.19064.37533-.42665.37533-.70882,0-.20536-.05704-.39481-.17033-.56873-.11368-.17392-.35643-.31043-.72867-.40952l-1.38837-.37333c-.47551-.12815-.82655-.27381-1.05351-.43697-.22695-.16279-.40884-.39283-.54525-.68934-.13641-.2969-.20462-.61369-.20462-.95079,0-.67022.24084-1.20752.72329-1.61228.48244-.40476,1.09935-.60732,1.85116-.60732.62425,0,1.18183.14129,1.67312.42305.49132.28217.80421.68137.93907,1.19796l-1.24501.3184c-.19152-.56755-.63813-.85131-1.34059-.85131-.40769,0-.71905.08756-.93369.26347-.21423.17592-.32175.39918-.32175.67023,0,.42863.33716.72911,1.01075.90105l1.23423.31877c.74832.19422,1.25002.48078,1.50551.86008.25547.37889.38304.79757.38304,1.25526,0,.73628-.26859,1.31576-.80614,1.73882-.53715.42307-1.23308.6348-2.08776.6348-.7202,0-1.35022-.1556-1.89123-.46723-.54063-.31123-.89975-.79638-1.07702-1.45585Z"/><path class="cls-1" d="m88.65101,39.03619h-1.27163l-2.75555-4.79103c-.04239-.07324-.11174-.19223-.20731-.357-.04238-.07324-.10828-.18866-.1969-.34625v5.49428h-1.05314v-7.49976h1.44694l2.54284,4.41729c.0212.03662.17534.30607.46281.80794v-5.22523h1.03193v7.49976Z"/><path class="cls-1" d="m94.96514,39.03619h-4.71846v-7.49976h4.67066v1.11556h-3.36207v2.03253h2.70237v1.08811h-2.70237v2.09862h3.40986v1.16493Z"/><path class="cls-1" d="m98.63046,39.03619h-1.40455v-6.34041h-1.93092v-1.15935h5.26641v1.15935h-1.93094v6.34041Z"/><path class="cls-1" d="m110.4291,31.53643l-1.9417,7.49976h-1.37219l-1.44694-5.51617-1.31401,5.51617h-1.34598l-1.98411-7.49976h1.38838l1.40455,5.4668,1.30861-5.4668h1.32441l1.44694,5.4668,1.37795-5.4668h1.15408Z"/><path class="cls-1" d="m113.84473,39.15159c-.96488,0-1.71552-.3737-2.25306-1.12073-.53716-.74744-.80573-1.67038-.80573-2.76924,0-1.09168.28554-2.00466.85621-2.73898.57107-.73428,1.32481-1.10163,2.26118-1.10163.9433,0,1.68893.36734,2.23688,1.10163.54795.73432.82154,1.65288.82154,2.7553,0,1.15776-.28438,2.09265-.85352,2.80505-.56914.71241-1.32401,1.0686-2.26348,1.0686Zm.01041-1.08771c.47166,0,.87087-.20178,1.19687-.60456.32638-.40274.48977-1.13347.48977-2.19213,0-.86086-.13488-1.53584-.40461-2.02458-.26936-.48914-.68783-.7335-1.25544-.7335-1.12055,0-1.68083.93211-1.68083,2.7963,0,.90502.14257,1.59078.42811,2.05762.28554.46723.69438.70085,1.22614.70085Z"/><path class="cls-1" d="m123.84002,39.03619h-1.38299l-1.12789-3.08247h-1.84037v3.08247h-1.30861v-7.49976h3.14897c.87588,0,1.51977.20417,1.93133.61251.41115.40874.61691.93687.61691,1.58519,0,.96356-.43619,1.62621-1.30861,1.98918l1.27125,3.31288Zm-4.35124-4.1646h1.62768c.47164,0,.82268-.10269,1.0535-.30764.23045-.20537.34565-.48715.34565-.84614,0-.32993-.11366-.5962-.34063-.79955-.22698-.20339-.5441-.30487-.95218-.30487h-1.73402v2.2582Z"/><path class="cls-1" d="m130.88859,39.03619h-1.4631l-1.53211-3.81875-1.40417,1.92312v1.89564h-1.30861v-7.49976h1.30861v3.93931c.16646-.26703.28708-.45211.36183-.5548l2.40952-3.38451h1.32477l-1.7236,2.46715,2.02686,5.03261Z"/><path class="cls-1" d="m131.1067,37.22851l1.27123-.28019c.15261.74384.73755,1.11556,1.7556,1.11556.46434,0,.82193-.09552,1.07163-.28576.25009-.19064.37531-.42665.37531-.70882,0-.20536-.05701-.39481-.1703-.56873-.11369-.17392-.35645-.31043-.72869-.40952l-1.38837-.37333c-.47549-.12815-.82655-.27381-1.05351-.43697-.22696-.16279-.40884-.39283-.54525-.68934-.13641-.2969-.20461-.61369-.20461-.95079,0-.67022.24082-1.20752.72327-1.61228s1.09937-.60732,1.85115-.60732c.62425,0,1.18184.14129,1.67314.42305.49131.28217.8042.68137.93907,1.19796l-1.24501.3184c-.19152-.56755-.63813-.85131-1.34061-.85131-.40769,0-.71903.08756-.93366.26347-.21425.17592-.32175.39918-.32175.67023,0,.42863.33717.72911,1.01073.90105l1.23423.31877c.74833.19422,1.25004.48078,1.50551.86008.25549.37889.38302.79757.38302,1.25526,0,.73628-.26857,1.31576-.80612,1.73882-.53715.42307-1.23308.6348-2.08774.6348-.7202,0-1.35024-.1556-1.89125-.46723-.54063-.31123-.89977-.79638-1.07703-1.45585Z"/><polygon class="cls-1" points="105.2931 11.05209 124.94197 11.05209 134.76681 19.83187 143.36264 27.50679 123.71375 27.50679 105.2931 11.05209"/><polygon class="cls-1" points="122.75646 11.05209 122.38435 11.05209 122.57037 11.21832 122.75646 11.05209"/><path class="cls-1" d="m65.11074,27.71052h-17.79642l17.72281-15.8349,8.8986,7.95625-8.82499,7.87865Zm-16.73753-.40752h16.59033l8.36876-7.47113-8.29518-7.41737-16.66391,14.88849Z"/><polygon class="cls-1" points="85.91429 11.05209 66.26541 11.05209 84.68609 27.50679 104.33498 27.50679 95.73915 19.83187 85.91429 11.05209"/><path class="cls-1" d="m105.56306,26.6833l-8.89819-7.95625,7.484-6.68188,8.89976,7.94989-7.48557,6.68824Zm-8.29476-7.95625l8.29476,7.41737,6.88213-6.14936-8.29632-7.41101-6.88057,6.143Z"/><path class="cls-1" d="m144.59082,26.6833l-8.89823-7.95625,8.82461-7.87865h17.79642l-17.72281,15.8349Zm-8.29478-7.95625l8.29478,7.41737,16.66391-14.88848h-16.59033l-8.36836,7.47111Z"/><path class="cls-1" d="m141.85453,34.3753c-.20498.11143-.45971.16714-.76489.16714-.39421,0-.70979-.13052-.94639-.39201-.23698-.26106-.35567-.60374-.35567-1.028,0-.4561.13334-.82464.39998-1.10603.26666-.28097.60459-.42146,1.01382-.42146.26279,0,.48052.03899.65314.1174v.3558c-.19843-.11382-.41731-.17113-.657-.17113-.3179,0-.57569.10943-.77336.32834-.19768.2189-.29672.51102-.29672.87718,0,.34744.09249.62405.27744.8302.18459.20615.42697.30925.72714.30925.2782,0,.51904-.06369.72249-.19064v.32396Z"/><path class="cls-1" d="m141.0895,34.59636c-.4086,0-.74034-.13774-.98602-.40987-.24523-.27001-.36954-.62823-.36954-1.0641,0-.46824.13942-.8529.41447-1.14308.27591-.29059.62992-.438,1.0528-.438.2696,0,.49678.04116.67568.12178.01932.00883.03148.02815.03148.04914v.35611c0,.01932-.01008.03696-.02686.0466-.01681.00925-.03696.00925-.05376,0-.18939-.10875-.40146-.16418-.63033-.16418-.30066,0-.54717.10456-.73319.31076-.18773.20786-.28305.49047-.28305.84112,0,.33217.0886.59925.26371.79411.17553.1961.40021.29144.68701.29144.26624,0,.49973-.06132.69417-.18269.01636-.01049.03695-.01133.05459-.00125.01722.00966.02771.02771.02771.04704v.32417c0,.01976-.01091.03779-.02813.04704-.21207.11548-.47831.17386-.79074.17386Zm.11171-2.94754c-.39223,0-.7202.13607-.97468.40442-.25575.26957-.38509.62947-.38509,1.06916,0,.40858.11506.74243.34183.99188.22466.24859.52954.37458.90623.37458.28053,0,.51946-.04914.71137-.14573v-.19945c-.19401.10077-.41868.152-.66896.152-.31495,0-.5728-.11002-.76679-.32713-.19358-.21501-.29144-.50645-.29144-.86591,0-.37793.10456-.68532.31074-.91336.20703-.2297.48083-.34601.813-.34601.21627,0,.41868.04576.60345.13563v-.23139c-.15999-.06551-.36157-.09869-.59966-.09869Zm.6534,2.72664h.00127-.00127Z"/><path class="cls-1" d="m143.44329,34.54244c-.39305,0-.70749-.13332-.9437-.39996-.2362-.26627-.35452-.61291-.35452-1.03995,0-.45889.12062-.82464.36146-1.09807.24045-.27302.56838-.40952.98299-.40952.38265,0,.69053.13252.92444.39759.2335.26547.35025.6121.35025,1.04034,0,.46525-.11945.83339-.35912,1.10363-.23968.27064-.56029.40595-.9618.40595Zm.02311-2.64543c-.29092,0-.52753.10825-.70901.32437-.18149.2161-.27245.49987-.27245.85129s.08864.634.26589.84812c.17687.21412.40769.32118.69246.32118.30365,0,.54332-.10191.71825-.30607.17534-.20417.2628-.48992.2628-.85725,0-.37652-.08477-.66784-.25471-.8732-.17031-.20539-.4046-.30845-.70324-.30845Z"/><path class="cls-1" d="m143.44324,34.59636c-.40734,0-.73827-.14069-.98392-.41826-.24399-.27505-.36787-.63662-.36787-1.07546,0-.4699.12599-.8512.37458-1.13381.25028-.28347.59462-.42751,1.02338-.42751.39684,0,.72145.13984.96501.41531.24147.27507.36367.63706.36367,1.07629,0,.47663-.12556.86004-.37289,1.13929-.24904.28136-.58625.42414-1.00197.42414Zm.04618-2.94754c-.39684,0-.71389.13145-.94274.39139-.23056.26204-.3477.61939-.3477,1.06242,0,.41154.11464.74918.34099,1.00408.22423.25363.52826.38214.90328.38214.38338,0,.69371-.13061.92133-.38803.2297-.25867.34603-.61815.34603-1.0679,0-.41237-.11337-.75085-.33679-1.00532-.22215-.25111-.51946-.37879-.88439-.37879Zm-.04618,2.64686c-.30025,0-.54718-.11464-.73407-.341-.18433-.22298-.27799-.51945-.27799-.88185s.09576-.66056.28515-.88606c.19149-.22804.44387-.34351.75001-.34351.31368,0,.56439.11044.74454.32754.17721.215.26707.52031.26707.90791,0,.37878-.0928.67901-.27547.89193-.18477.21584-.4405.32503-.75923.32503Zm.02309-2.34492c-.27674,0-.4951.09994-.6677.30487-.17259.20576-.25994.48083-.25994.8172,0,.33677.08524.61017.25363.81341.16755.20326.38047.30194.65091.30194.28596,0,.514-.0966.67776-.28724.16547-.19316.24944-.46949.24944-.82222,0-.36199-.08147-.64418-.2423-.83946-.16126-.19402-.37751-.2885-.66181-.2885Z"/><path class="cls-1" d="m147.50242,34.4947h-.39804l-1.42538-2.27332c-.03621-.05693-.0655-.11662-.08901-.17911h-.01155c.01039.0609.01579.19183.01579.39201v2.06042h-.32484v-2.85201h.42118l1.38682,2.2375c.05818.09273.09556.15641.11213.19105h.00769c-.0127-.08239-.01927-.22209-.01927-.41988v-2.00866h.32447v2.85201Z"/><path class="cls-1" d="m147.50233,34.54849h-.39811c-.01847,0-.03567-.00968-.04533-.0252l-1.41268-2.25295c.00127.0487.00169.1033.00169.16376v2.06063c0,.02981-.02394.05376-.05376.05376h-.32461c-.02982,0-.05374-.02395-.05374-.05376v-2.85219c0-.02984.02392-.05377.05374-.05377h.4212c.01847,0,.03569.00968.04577.02563l1.38661,2.23784c.00128.00208.00294.0042.00423.00672-.00211-.06047-.00294-.12934-.00294-.20745v-2.00896c0-.02984.02392-.05377.05374-.05377h.32419c.02982,0,.05374.02394.05374.05377v2.85219c0,.02981-.02392.05376-.05374.05376Zm-.36829-.10752h.31453v-2.74469h-.21667v1.95521c0,.1936.00631.33216.01847.41196.0021.01553-.00252.03106-.0126.04281-.02351.02857-.08147.02059-.09701-.01216-.01049-.02268-.0382-.0735-.10875-.18519l-1.3711-2.21264h-.33762v2.74469h.21711v-2.00688c0-.24271-.008-.34224-.0147-.38297-.00252-.01553.00167-.0315.01176-.04368.0105-.01176.0252-.01889.04116-.01889.02225,0,.05374.01385.06173.03485.02226.06007.05081.11675.08399.16882l1.40972,2.24875Z"/><path class="cls-1" d="m150.42212,34.4947h-.39806l-1.42536-2.27332c-.03621-.05693-.06551-.11662-.08899-.17911h-.01158c.01042.0609.01581.19183.01581.39201v2.06042h-.32484v-2.85201h.42117l1.38684,2.2375c.05818.09273.09555.15641.11213.19105h.00771c-.01272-.08239-.01927-.22209-.01927-.41988v-2.00866h.32445v2.85201Z"/><path class="cls-1" d="m150.42214,34.54849h-.39811c-.01847,0-.03568-.00968-.04535-.0252l-1.41266-2.25295c.00127.04828.00169.10288.00169.16376v2.06063c0,.02981-.02395.05376-.05375.05376h-.32504c-.02982,0-.05374-.02395-.05374-.05376v-2.85219c0-.02984.02392-.05377.05374-.05377h.4212c.01848,0,.03569.00968.04577.02563l1.38705,2.23784c.00125.00208.0025.0042.00379.00628-.00211-.06088-.00294-.12976-.00294-.20701v-2.00896c0-.02984.02392-.05377.05374-.05377h.32462c.0298,0,.05375.02394.05375.05377v2.85219c0,.02981-.02395.05376-.05375.05376Zm-.36827-.10752h.31453v-2.74469h-.21711v1.95521c0,.19191.0063.3305.01889.41196.0021.01553-.00252.03106-.0126.04281-.02352.02815-.08105.02059-.09659-.01133-.01134-.02309-.03905-.07433-.10918-.18602l-1.37152-2.21264h-.33762v2.74469h.21754v-2.00688c0-.24355-.00841-.34266-.01512-.38255-.00294-.01555.00167-.03192.01176-.04368.02351-.02982.08903-.02057.1033.01553.02226.06007.05081.11675.08397.16882l1.40975,2.24875Z"/><path class="cls-1" d="m152.57694,34.4947h-1.46814v-2.85201h1.40648v.30207h-1.08164v.94881h1.00034v.30048h-1.00034v.99816h1.1433v.30248Z"/><path class="cls-1" d="m152.57682,34.54849h-1.46808c-.02982,0-.05377-.02395-.05377-.05376v-2.85219c0-.02984.02395-.05377.05377-.05377h1.40635c.02982,0,.05374.02394.05374.05377v.30233c0,.02981-.02392.05376-.05374.05376h-1.02758v.84113h.94653c.02981,0,.05374.02394.05374.05376v.30066c0,.02982-.02394.05374-.05374.05374h-.94653v.89069h1.0893c.02981,0,.05376.02395.05376.05376v.30235c0,.02981-.02395.05376-.05376.05376Zm-1.41433-.10752h1.36059v-.19485h-1.08933c-.02981,0-.05374-.02392-.05374-.05374v-.99819c0-.02981.02394-.05376.05374-.05376h.94655v-.19316h-.94655c-.02981,0-.05374-.02394-.05374-.05374v-.94865c0-.02982.02394-.05374.05374-.05374h1.02759v-.19485h-1.29885v2.74469Z"/><path class="cls-1" d="m154.95562,34.3753c-.205.11143-.45971.16714-.76489.16714-.39421,0-.70979-.13052-.94638-.39201-.237-.26106-.35567-.60374-.35567-1.028,0-.4561.13332-.82464.39998-1.10603.26664-.28097.60459-.42146,1.01382-.42146.2628,0,.48052.03899.65315.1174v.3558c-.19845-.11382-.41732-.17113-.657-.17113-.3179,0-.57569.10943-.77337.32834s-.29671.51102-.29671.87718c0,.34744.09247.62405.27746.8302.18456.20615.42694.30925.72713.30925.2782,0,.51904-.06369.7225-.19064v.32396Z"/><path class="cls-1" d="m154.19065,34.59636c-.40861,0-.74036-.13774-.98601-.40987-.24524-.27001-.36956-.62823-.36956-1.0641,0-.46824.13944-.8529.41448-1.14308.27591-.29059.62991-.438,1.05278-.438.2696,0,.49678.04116.67566.12178.01933.00883.03151.02815.03151.04914v.35611c0,.01932-.01008.03696-.02688.0466-.0168.00925-.03694.00925-.05376,0-.18939-.10875-.40144-.16418-.63031-.16418-.30025,0-.54719.10456-.73365.31076-.1877.20786-.28261.49091-.28261.84112,0,.33217.08862.59925.26372.79411.17555.1961.40022.29144.68703.29144.26624,0,.49972-.06132.69415-.18269.0168-.01049.03738-.01133.05459-.00125.01722.00966.02772.02771.02772.04704v.32417c0,.01976-.01093.03779-.02815.04746-.21248.11506-.47871.17344-.79072.17344Zm.11169-2.94754c-.39222,0-.72018.13607-.97468.40442-.25573.26957-.38507.62947-.38507,1.06916,0,.40858.11506.74243.34183.99188.22466.24859.52953.37458.90622.37458.28009,0,.51945-.04914.71137-.14573v-.19945c-.19402.10077-.41868.152-.66896.152-.31495,0-.5728-.11002-.7668-.32713-.1936-.21501-.29144-.50645-.29144-.86591,0-.37793.10456-.68492.31033-.91336.20745-.2297.48125-.34601.81342-.34601.21625,0,.41868.04576.60345.13563v-.23139c-.16-.06551-.36157-.09869-.59968-.09869Zm.65342,2.72664h.00127-.00127Z"/><path class="cls-1" d="m157.11814,31.94477h-.79959v2.54993h-.32443v-2.54993h-.79765v-.30207h1.92167v.30207Z"/><path class="cls-1" d="m156.31845,34.54849h-.32419c-.02982,0-.05376-.02395-.05376-.05376v-2.49609h-.74414c-.02981,0-.05373-.02395-.05373-.05376v-.30233c0-.02984.02392-.05377.05373-.05377h1.92164c.02982,0,.05374.02394.05374.05377v.30233c0,.02981-.02392.05376-.05374.05376h-.74581v2.49609c0,.02981-.02392.05376-.05374.05376Zm-.27043-.10752h.21667v-2.49609c0-.02982.02395-.05374.05376-.05374h.7458v-.19485h-1.8141v.19485h.74412c.02981,0,.05376.02392.05376.05374v2.49609Z"/><path class="cls-1" d="m157.83795,34.4947h-.32484v-2.85201h.32484v2.85201Z"/><path class="cls-1" d="m157.83777,34.54849h-.3246c-.02982,0-.05376-.02395-.05376-.05376v-2.85219c0-.02984.02394-.05377.05376-.05377h.3246c.02982,0,.05376.02394.05376.05377v2.85219c0,.02981-.02394.05376-.05376.05376Zm-.27085-.10752h.21711v-2.74469h-.21711v2.74469Z"/><path class="cls-1" d="m160.75919,34.4947h-.39806l-1.42536-2.27332c-.03621-.05693-.06551-.11662-.08901-.17911h-.01156c.01039.0609.01581.19183.01581.39201v2.06042h-.32484v-2.85201h.42117l1.38684,2.2375c.05818.09273.09555.15641.11212.19105h.00771c-.01272-.08239-.01926-.22209-.01926-.41988v-2.00866h.32445v2.85201Z"/><path class="cls-1" d="m160.75927,34.54849h-.39811c-.01847,0-.03568-.00968-.04535-.0252l-1.41266-2.25295c.00127.04828.00169.10288.00169.16376v2.06063c0,.02981-.02396.05376-.05376.05376h-.32503c-.02982,0-.05374-.02395-.05374-.05376v-2.85219c0-.02984.02392-.05377.05374-.05377h.4212c.01847,0,.03569.00968.04577.02563l1.38703,2.23784c.00127.00208.00252.0042.00377.00628-.00208-.06088-.00291-.12976-.00291-.20701v-2.00896c0-.02984.02392-.05377.05374-.05377h.32461c.02981,0,.05374.02394.05374.05377v2.85219c0,.02981-.02394.05376-.05374.05376Zm-.36829-.10752h.31453v-2.74469h-.2171v1.95521c0,.19191.00628.3305.01889.41196.0021.01553-.00254.03106-.01262.04281-.0235.02815-.08147.02059-.09657-.01133-.01135-.02309-.03904-.07433-.10917-.18602l-1.37153-2.21264h-.33762v2.74469h.21754v-2.00688c0-.24355-.00841-.34266-.01512-.38255-.00294-.01555.00167-.03192.01176-.04368.02392-.02982.08945-.02057.1033.01553.02309.06215.0508.11717.08397.16882l1.40973,2.24875Z"/><path class="cls-1" d="m163.51666,34.29969c-.2782.16199-.58725.24276-.92712.24276-.39536,0-.71517-.13132-.95912-.394-.24391-.26228-.36606-.60973-.36606-1.04193,0-.44179.13565-.80396.40653-1.08691.27128-.28339.61462-.42466,1.03078-.42466.30135,0,.55411.05015.7591.15082v.37016c-.22425-.14568-.48936-.2189-.79609-.2189-.3102,0-.56452.11025-.76297.33034-.19805.22009-.29749.50506-.29749.85528,0,.36058.0921.64395.27628.85011.1842.20615.4339.30925.74949.30925.21657,0,.40383-.04418.56221-.13334v-.79916h-.60652v-.30248h.93097v1.29269Z"/><path class="cls-1" d="m162.58935,34.59636c-.40943,0-.74497-.13859-.99818-.41154-.2524-.27128-.38047-.6341-.38047-1.07839,0-.45353.14192-.8319.42161-1.12376.28011-.29311.63956-.44135,1.06917-.44135.30864,0,.57194.05249.78274.15622.01849.00924.03024.02772.03024.04829v.36996c0,.01974-.01091.03781-.02813.04703-.01764.00968-.03865.00883-.05501-.00208-.2146-.13944-.47244-.20997-.76681-.20997-.29269,0-.53583.1054-.72272.31284-.18854.20914-.28386.4846-.28386.81889,0,.3456.08819.61982.26246.81468.17552.19568.40733.29102.70968.29102.19401,0,.3645-.03738.50854-.11171v-.71305h-.55306c-.02981,0-.05374-.02394-.05374-.05376v-.30277c0-.02982.02394-.05374.05374-.05374h.931c.02982,0,.05376.02392.05376.05374v1.29298c0,.01932-.01008.03696-.02688.0466-.28515.16588-.60595.24988-.95409.24988Zm.11213-2.94754c-.40442,0-.72901.13355-.9919.40819-.2595.27128-.39138.62443-.39138,1.04941,0,.41616.11843.75462.35191,1.00532.2318.2503.54086.37712.91924.37712.31788,0,.61143-.07392.87347-.22006v-1.20815h-.82351v.19527h.55306c.02982,0,.05376.02394.05376.05374v.79913c0,.01932-.0105.03738-.0273.04704-.16588.09282-.36367.13984-.58875.13984-.33008,0-.59547-.11002-.78947-.32713-.19275-.21501-.29017-.51315-.29017-.88606,0-.36157.10498-.6614.31159-.8911.20829-.23098.47829-.34812.8025-.34812.27884,0,.52785.05963.74243.17763v-.24105c-.19106-.08693-.4279-.13103-.70547-.13103Zm.81508,2.65106h.00125-.00125Z"/><path class="cls-1" d="m141.08579,38.61112c-.39304,0-.70749-.13332-.94369-.39998-.23622-.26625-.35452-.6129-.35452-1.03995,0-.45888.12061-.82464.36144-1.09805.24046-.27303.56838-.40954.98301-.40954.38263,0,.69053.13252.92442.39761.23352.26544.35027.6121.35027,1.04034,0,.46525-.11946.83339-.35913,1.10363-.23968.27064-.56028.40595-.9618.40595Zm.02312-2.64543c-.29094,0-.52753.10823-.70901.32435-.1815.21612-.27245.49989-.27245.85129,0,.35144.08864.63402.26588.84814.17687.21412.40769.32116.69246.32116.30365,0,.54332-.10189.71828-.30606.17532-.20417.26279-.48992.26279-.85728,0-.3765-.08478-.66783-.25471-.8732-.17033-.20536-.40461-.30842-.70324-.30842Z"/><path class="cls-1" d="m141.08572,38.66468c-.40733,0-.73825-.14067-.9839-.41782-.24399-.27507-.36788-.63664-.36788-1.07546,0-.4699.12597-.85121.3746-1.13384.25027-.28386.59462-.4279,1.02336-.4279.39684,0,.72145.13984.96502.41574.24145.27463.36365.63662.36365,1.07629,0,.47663-.12514.86003-.37247,1.13929-.24945.28094-.58665.4237-1.00239.4237Zm.04618-2.94752c-.39642,0-.71347.13186-.94276.3918-.23053.26206-.3477.6194-.3477,1.06244,0,.41154.11464.74916.341,1.00406.22423.25323.52786.38172.90328.38172.3838,0,.69373-.13059.92175-.38759.22929-.2591.3456-.61815.3456-1.0679,0-.41281-.11337-.75085-.33679-1.00491-.22214-.25196-.51987-.37962-.88439-.37962Zm-.04618,2.64727c-.30025,0-.54717-.11464-.73406-.34099-.18436-.22298-.27799-.51987-.27799-.88227s.09574-.66015.28513-.88565c.19149-.22802.44387-.34351.75001-.34351.3137,0,.56439.11044.74454.32755.17721.21375.26708.51945.26708.9079,0,.37879-.0928.67903-.27547.89193-.18477.21586-.44052.32503-.75925.32503Zm.02309-2.3449c-.27674,0-.4951.09994-.66771.30487-.17257.20576-.25992.48041-.25992.81677,0,.33679.08524.61059.25365.81383.16755.20326.38047.30193.6509.30193.28598,0,.514-.09659.67778-.28723.16545-.19318.24942-.46949.24942-.82224,0-.36282-.08147-.64503-.24228-.83902-.16127-.19445-.37752-.28892-.66183-.28892Z"/><path class="cls-1" d="m143.23675,37.48522v1.07815h-.32486v-2.85199h.76105c.29632,0,.52598.07402.68861.22246.16298.14885.24469.35821.24469.62882,0,.27024-.09057.49193-.27168.66426-.1807.17231-.42502.2583-.7329.2583h-.36491Zm0-1.47177v1.16968h.33986c.22388,0,.39497-.05293.51288-.15838.11753-.10509.17648-.25394.17648-.44618,0-.37687-.21615-.56512-.6489-.56512h-.38032Z"/><path class="cls-1" d="m143.23662,38.61725h-.32461c-.02981,0-.05374-.02395-.05374-.05376v-2.85222c0-.02981.02394-.05374.05374-.05374h.76093c.30949,0,.55348.07979.7248.23685.17386.1583.26204.38339.26204.6681,0,.28472-.09701.52156-.28807.70339-.18981.181-.44893.27297-.77016.27297h-.31116v1.02465c0,.02981-.02395.05376-.05377.05376Zm-.27085-.10752h.2171v-1.02463c0-.02982.02395-.05376.05376-.05376h.36494c.29269,0,.52659-.08189.69625-.24357.1688-.16041.25448-.37081.25448-.62529,0-.25363-.07643-.45143-.22677-.58875-.1516-.13857-.37081-.20869-.65257-.20869h-.70718v2.74469Zm.61101-1.27282h-.34016c-.02981,0-.05376-.02394-.05376-.05376v-1.16952c0-.02982.02395-.05376.05376-.05376h.38047c.58078,0,.70256.33637.70256.61857,0,.20788-.06551.37121-.19444.48628-.12765.11423-.312.17218-.54843.17218Zm-.28638-.1075h.28638c.20913,0,.36954-.04873.47704-.14448.10667-.0953.15833-.22843.15833-.40648,0-.34393-.19485-.51107-.59506-.51107h-.32669v1.06203Z"/><path class="cls-1" d="m145.41275,37.48522v1.07815h-.32486v-2.85199h.76105c.29632,0,.52598.07402.68859.22246.163.14885.24471.35821.24471.62882,0,.27024-.09057.49193-.27168.66426-.18072.17231-.42502.2583-.7329.2583h-.36491Zm0-1.47177v1.16968h.33986c.22388,0,.39496-.05293.51288-.15838.11753-.10509.17648-.25394.17648-.44618,0-.37687-.21617-.56512-.6489-.56512h-.38032Z"/><path class="cls-1" d="m145.41273,38.61725h-.32503c-.02982,0-.05374-.02395-.05374-.05376v-2.85222c0-.02981.02392-.05374.05374-.05374h.76134c.30908,0,.55263.07979.72482.23643.17384.15872.26204.38382.26204.66852,0,.28513-.09701.52156-.2885.70339-.18939.181-.44848.27297-.76975.27297h-.31116v1.02465c0,.02981-.02395.05376-.05376.05376Zm-.27128-.10752h.21754v-1.02463c0-.02982.02392-.05376.05374-.05376h.36492c.29269,0,.5266-.08189.69583-.24357.16924-.16041.2549-.37081.2549-.62529,0-.25363-.07643-.45143-.22677-.58875-.1516-.13857-.37121-.20869-.65257-.20869h-.70758v2.74469Zm.61099-1.27282h-.33972c-.02982,0-.05374-.02394-.05374-.05376v-1.16952c0-.02982.02392-.05376.05374-.05376h.38045c.58078,0,.70256.33637.70256.61857,0,.20788-.06551.37121-.19443.48628-.12766.11423-.31243.17218-.54886.17218Zm-.28596-.1075h.28596c.20913,0,.36996-.04873.47748-.14448.10667-.0953.15831-.22843.15831-.40648,0-.34393-.19485-.51107-.59506-.51107h-.32669v1.06203Z"/><path class="cls-1" d="m148.38062,38.61112c-.39304,0-.70749-.13332-.94371-.39998-.2362-.26625-.35452-.6129-.35452-1.03995,0-.45888.12062-.82464.36146-1.09805.24046-.27303.56836-.40954.98299-.40954.38265,0,.69055.13252.92444.39761.23352.26544.35027.6121.35027,1.04034,0,.46525-.11947.83339-.35913,1.10363-.23968.27064-.56029.40595-.9618.40595Zm.02312-2.64543c-.29093,0-.52753.10823-.70903.32435-.18149.21612-.27245.49989-.27245.85129,0,.35144.08865.63402.26589.84814.17687.21412.40769.32116.69246.32116.30363,0,.54333-.10189.71826-.30606.17532-.20417.2628-.48992.2628-.85728,0-.3765-.08478-.66783-.2547-.8732-.17033-.20536-.40462-.30842-.70324-.30842Z"/><path class="cls-1" d="m148.3804,38.66468c-.40691,0-.73781-.14067-.9839-.41782-.24399-.27549-.36787-.63748-.36787-1.07546,0-.4699.12599-.85162.375-1.13384.24986-.28386.59421-.4279,1.02338-.4279.39642,0,.72103.13984.9646.41574.24147.27463.36367.63662.36367,1.07629,0,.47706-.12557.86045-.3725,1.13929-.24942.28094-.58664.4237-1.00239.4237Zm.04662-2.94752c-.39682,0-.71389.13186-.94274.3918-.23097.26206-.34812.6194-.34812,1.06244,0,.41112.11464.74874.34097,1.00406.22467.25323.52829.38172.90328.38172.38383,0,.69375-.13059.92177-.38759.22928-.25867.34562-.61773.34562-1.0679,0-.41281-.1134-.75085-.33679-1.00491-.22215-.25196-.5199-.37962-.88398-.37962Zm-.04662,2.64727c-.30024,0-.54675-.11464-.73362-.34099-.18477-.22256-.27842-.51945-.27842-.88227,0-.3624.09576-.66015.28513-.88565.1915-.22802.44388-.34351.75043-.34351.31368,0,.56439.11044.74454.32755.17722.21417.26708.51989.26708.9079,0,.37879-.0928.67862-.27591.89193-.18477.21586-.4405.32503-.75924.32503Zm.02353-2.3449c-.27337,0-.49805.10246-.66812.30487-.17261.20576-.25994.48041-.25994.81677,0,.3372.08525.61099.25405.81383.16757.20326.38047.30193.65048.30193.29019,0,.51192-.09405.67778-.28723.16588-.1936.24988-.4699.24988-.82224,0-.36242-.08147-.64503-.24274-.83902-.16082-.19445-.3771-.28892-.66139-.28892Z"/><path class="cls-1" d="m152.19236,38.56336h-.38609l-.46358-.79957c-.04239-.07441-.08361-.1377-.12369-.18984-.04008-.05254-.08091-.09511-.12252-.12854-.042-.03303-.0871-.05732-.13528-.07243-.04814-.01514-.10286-.0227-.16335-.0227h-.26628v1.21308h-.32484v-2.85199h.82694c.121,0,.23276.01551.33523.04655.10213.03104.19113.07839.26628.14207.07553.06369.1345.14288.17687.23801.04238.09472.06358.20576.06358.33312,0,.0995-.01426.19064-.04316.27342-.0293.08278-.07051.1568-.12368.22168-.05358.06486-.11792.1202-.19308.16597-.07551.04576-.16028.08117-.25432.10665v.00797c.04662.02109.0867.04537.121.07243.03392.02707.06667.0593.0975.09631.03083.03742.06125.07961.09171.12656.03005.04698.06395.10189.10134.16397l.51943.85728Zm-1.6608-2.54992v1.03437h.44006c.0813,0,.15644-.01275.22505-.03781.06895-.02509.12869-.06129.17879-.10826.05008-.04735.08938-.10508.11791-.17313.02813-.06844.04239-.14487.04239-.22963,0-.15244-.04779-.27183-.14373-.35702-.09595-.08556-.23467-.12852-.41655-.12852h-.44392Z"/><path class="cls-1" d="m152.19216,38.61725h-.38591c-.01932,0-.03696-.01008-.04661-.0269l-.46362-.79955c-.04073-.07138-.08064-.13313-.11968-.18392-.03737-.04872-.0756-.08904-.11339-.11969-.03654-.02855-.07643-.04995-.118-.06298-.04241-.01343-.09197-.02016-.14696-.02016h-.21249v1.15945c0,.02981-.02394.05376-.05374.05376h-.32503c-.02982,0-.05376-.02395-.05376-.05376v-2.85222c0-.02981.02394-.05374.05376-.05374h.82684c.12556,0,.24357.01637.35107.04872.10877.03317.20493.08441.28555.15243.08147.0693.14573.15579.19108.25744.04493.10119.06802.22045.06802.35484,0,.1054-.01553.20323-.04618.29142-.03109.0886-.0756.16882-.1327.2377-.05753.06969-.12724.12976-.20661.17805-.04872.02938-.10161.05501-.15789.07683.01007.00714.02016.01428.02982.02184.03821.03107.07306.06594.10539.10413.03234.0399.06425.08358.09576.1323.03023.04745.06465.10246.10246.16503l.51904.85752c.00966.01636.01008.03737.00083.05415-.00964.01681-.02769.02732-.04703.02732Zm-.35484-.10752h.25952l-.46948-.77604c-.03738-.06173-.07098-.11591-.10122-.16251-.02896-.04535-.05836-.08566-.08776-.12179-.0273-.03233-.05753-.06257-.08987-.0886-.03148-.02436-.06844-.04662-.10918-.06465-.01889-.00883-.03151-.02815-.03151-.04916,0-.02434.01639-.05332.03948-.05963.08945-.02478.17049-.05878.24063-.10078.0693-.04242.12976-.09449.17932-.15495.04912-.05922.08734-.12809.11421-.20451.02688-.07685.04031-.16293.04031-.25615,0-.11927-.01972-.22383-.0588-.31118-.03862-.08651-.09322-.16041-.16249-.21879-.06929-.05836-.15244-.1029-.24693-.13186-.09744-.02898-.20494-.04408-.32-.04408h-.7731v2.74469h.21752v-1.15945c0-.02981.02395-.05374.05377-.05374h.26624c.06592,0,.12599.00839.17931.02519.05376.0168.10498.0441.15243.08104.04537.03654.08945.08316.13228.13859.04158.0546.08441.12051.12724.19612l.44808.77225Zm-.86591-1.40804h-.43966c-.02982,0-.05377-.02394-.05377-.05376v-1.03429c0-.02982.02395-.05376.05377-.05376h.44387c.19441,0,.34643.04787.45226.14194.10709.09534.16168.22887.16168.39726,0,.09112-.01555.17509-.04662.25028-.03106.07433-.07516.13857-.13059.19149-.05501.05208-.12178.09239-.19737.11968-.07517.0273-.15706.04116-.24357.04116Zm-.38591-.1075h.38591c.0739,0,.14319-.01176.20661-.03444.06216-.02267.11633-.05542.16043-.09701.04451-.04241.0802-.09447.1054-.15495.02519-.06132.03821-.13186.03821-.20871,0-.13649-.04242-.24272-.12556-.31663-.08568-.07644-.21375-.11508-.38087-.11508h-.39013v.92681Z"/><path class="cls-1" d="m154.06897,36.01345h-.7996v2.54992h-.32443v-2.54992h-.79765v-.30207h1.92169v.30207Z"/><path class="cls-1" d="m153.2693,38.61725h-.32419c-.02982,0-.05376-.02395-.05376-.05376v-2.49611h-.74412c-.02983,0-.05374-.02394-.05374-.05374v-.30237c0-.02981.02392-.05374.05374-.05374h1.92163c.02981,0,.05374.02394.05374.05374v.30237c0,.02981-.02393.05374-.05374.05374h-.74582v2.49611c0,.02981-.02392.05376-.05375.05376Zm-.27045-.10752h.21669v-2.49609c0-.02982.02394-.05376.05376-.05376h.74581v-.19484h-1.81412v.19484h.74412c.02981,0,.05374.02394.05374.05376v2.49609Z"/><path class="cls-1" d="m156.49043,37.40959c0,.80116-.35105,1.20153-1.05276,1.20153-.67239,0-1.00842-.38525-1.00842-1.15578v-1.74397h.32447v1.72209c0,.58506.23967.87718.71864.87718.46242,0,.69361-.28217.69361-.84733v-1.75194h.32447v1.69822Z"/><path class="cls-1" d="m155.43786,38.66468c-.70508,0-1.06246-.40692-1.06246-1.2094v-1.74401c0-.02981.02395-.05374.05376-.05374h.32461c.02982,0,.05374.02394.05374.05374v1.72217c0,.55431.21754.82349.66477.82349.43044,0,.63999-.25952.63999-.79367v-1.75199c0-.02981.02392-.05374.05374-.05374h.32462c.02982,0,.05375.02394.05375.05374v1.69823c0,.83272-.37248,1.25518-1.10652,1.25518Zm-.95494-2.89963v1.69023c0,.7416.31243,1.1019.95494,1.1019.6723,0,.99902-.37541.99902-1.14768v-1.64446h-.21711v1.69822c0,.59797-.25154.90117-.74749.90117-.51232,0-.77227-.31326-.77227-.93099v-1.66839h-.21709Z"/><path class="cls-1" d="m159.37505,38.56336h-.39804l-1.42537-2.27332c-.03622-.05691-.0655-.11661-.08901-.17909h-.01155c.01041.0609.01579.19183.01579.39201v2.06041h-.32484v-2.85199h.42118l1.38681,2.2375c.0582.09273.09556.15641.11215.19105h.00769c-.0127-.08239-.01925-.2221-.01925-.4199v-2.00865h.32445v2.85199Z"/><path class="cls-1" d="m159.37517,38.61725h-.39811c-.01847,0-.03568-.00968-.04535-.0252l-1.41266-2.25295c.00125.04828.00169.10288.00169.16376v2.06063c0,.02981-.02396.05376-.05376.05376h-.32503c-.02982,0-.05374-.02395-.05374-.05376v-2.85222c0-.02981.02392-.05374.05374-.05374h.4212c.01847,0,.03569.00966.04576.02563l1.38705,2.2374c.00127.0021.00254.0042.00379.00631-.0021-.0609-.00293-.12976-.00293-.20703v-2.00857c0-.02981.02392-.05374.05374-.05374h.32461c.02981,0,.05374.02394.05374.05374v2.85222c0,.02981-.02394.05376-.05374.05376Zm-.36829-.10752h.31453v-2.74469h-.2171v1.95479c0,.19233.00629.33092.01889.41195.00208.01555-.00252.03109-.0126.04283-.02351.02771-.08148.02059-.09659-.01133-.01133-.02267-.03904-.07348-.1096-.18602l-1.3711-2.21221h-.33762v2.74469h.21754v-2.00688c0-.24357-.00842-.34266-.01514-.38255-.00293-.01555.00169-.03192.01177-.04368.02394-.02982.08945-.02059.1033.01553.02309.06215.0508.11717.08397.16882l1.40973,2.24875Z"/><path class="cls-1" d="m160.38656,38.56336h-.32482v-2.85199h.32482v2.85199Z"/><path class="cls-1" d="m160.38637,38.61725h-.32461c-.02982,0-.05374-.02395-.05374-.05376v-2.85222c0-.02981.02392-.05374.05374-.05374h.32461c.02981,0,.05376.02394.05376.05374v2.85222c0,.02981-.02395.05376-.05376.05376Zm-.27085-.10752h.21711v-2.74469h-.21711v2.74469Z"/><path class="cls-1" d="m162.71285,36.01345h-.79957v2.54992h-.32445v-2.54992h-.79765v-.30207h1.92167v.30207Z"/><path class="cls-1" d="m161.91326,38.61725h-.32463c-.02981,0-.05376-.02395-.05376-.05376v-2.49611h-.7437c-.02982,0-.05374-.02394-.05374-.05374v-.30237c0-.02981.02392-.05374.05374-.05374h1.92164c.02981,0,.05374.02394.05374.05374v.30237c0,.02981-.02394.05374-.05374.05374h-.74581v2.49611c0,.02981-.02394.05376-.05374.05376Zm-.27085-.10752h.2171v-2.49609c0-.02982.02394-.05376.05376-.05376h.7458v-.19484h-1.81412v.19484h.7437c.02982,0,.05377.02394.05377.05376v2.49609Z"/><path class="cls-1" d="m163.43266,38.56336h-.32484v-2.85199h.32484v2.85199Z"/><path class="cls-1" d="m163.43258,38.61725h-.3246c-.02982,0-.05377-.02395-.05377-.05376v-2.85222c0-.02981.02395-.05374.05377-.05374h.3246c.02981,0,.05376.02394.05376.05374v2.85222c0,.02981-.02395.05376-.05376.05376Zm-.27085-.10752h.21711v-2.74469h-.21711v2.74469Z"/><path class="cls-1" d="m165.58902,38.56336h-1.46814v-2.85199h1.40648v.30207h-1.08164v.94881h1.00032v.30048h-1.00032v.99816h1.1433v.30246Z"/><path class="cls-1" d="m165.58893,38.61725h-1.46809c-.02981,0-.05374-.02395-.05374-.05376v-2.85222c0-.02981.02394-.05374.05374-.05374h1.40638c.02981,0,.05374.02394.05374.05374v.30237c0,.02981-.02394.05374-.05374.05374h-1.02759v.84115h.94653c.02982,0,.05376.02392.05376.05374v.30025c0,.02982-.02394.05376-.05376.05376h-.94653v.89068h1.0893c.02982,0,.05377.02394.05377.05374v.30279c0,.02981-.02395.05376-.05377.05376Zm-1.41433-.10752h1.36059v-.19527h-1.08932c-.0298,0-.05374-.02394-.05374-.05376v-.99818c0-.02982.02394-.05374.05374-.05374h.94655v-.19275h-.94655c-.0298,0-.05374-.02395-.05374-.05376v-.94863c0-.02982.02394-.05376.05374-.05376h1.02759v-.19484h-1.29887v2.74469Z"/><path class="cls-1" d="m165.95353,38.44796v-.39362c.04355.03979.09595.07561.15723.10747.06127.03143.12561.05849.19304.08038.06782.02189.13565.0386.20384.05055.06821.01194.1314.0179.18921.0179.1996,0,.34873-.03781.44736-.11423.09865-.07641.1476-.18586.1476-.32912,0-.07683-.0162-.14409-.04894-.201-.03314-.05693-.07823-.10904-.13641-.156-.05781-.04698-.12639-.09234-.20576-.13532-.079-.04299-.16455-.08836-.25587-.13612-.09673-.05054-.18651-.1015-.27051-.15322-.08361-.05174-.15646-.10865-.2181-.17113-.06203-.06208-.11061-.13295-.14605-.21175s-.05278-.17153-.05278-.27739c0-.13015.02735-.24318.08285-.3391.0555-.09631.12833-.1755.2185-.23799.08977-.0621.19265-.10867.30788-.1389.11523-.03065.23274-.04577.35258-.04577.27282,0,.47205.03384.5969.1015v.37569c-.16378-.11661-.37339-.17509-.62966-.17509-.0709,0-.14179.00795-.21269.02307-.0709.01511-.13371.0402-.18921.07443-.05548.03464-.10057.07878-.13526.13332-.03468.05452-.05202.12059-.05202.199,0,.07283.01311.13571.0397.18905.02621.05293.06514.10109.11676.14487.05124.04377.11407.08636.18841.12735.074.04099.15916.08636.25588.13532.09903.05055.19305.10348.28206.15919.08862.05571.16646.11742.23352.18508.06706.06725.12023.14248.15953.22446.0393.08239.05894.17631.05894.28258,0,.14048-.02698.25949-.08015.35699-.05355.09752-.12561.17672-.21656.23762-.09054.06088-.19536.10506-.31366.13213-.11869.02745-.24354.04098-.37494.04098-.04392,0-.09787-.00358-.16223-.01114-.06434-.00717-.13023-.0179-.1969-.03184-.06704-.01355-.13064-.03104-.19036-.05135-.05971-.02068-.10789-.04377-.14373-.06883Z"/><path class="cls-1" d="m166.64676,38.66468c-.04787,0-.10456-.00377-.16838-.01133-.06343-.00714-.12934-.01763-.20158-.03275-.06508-.01302-.12976-.03024-.19695-.05291-.06382-.02184-.11673-.04746-.15706-.07558-.0147-.0101-.02309-.02646-.02309-.0441v-.39348c0-.02142.0126-.04031.03192-.04914.01974-.00798.04199-.00546.05794.00924.04117.03696.0903.07056.14573.09911.05963.03107.12179.05668.18519.07725.06636.02143.13061.0374.19653.04873.06425.01133.12431.0172.17975.0172.18687,0,.32671-.03442.41489-.10288.08483-.06592.12639-.16.12639-.28682,0-.0676-.01385-.12639-.04156-.17427-.02982-.05124-.0714-.09869-.12389-.14109-.05626-.04579-.12263-.08903-.19738-.12934-.07895-.04327-.1642-.0886-.25531-.13565-.09994-.05291-.18939-.10373-.2738-.15537-.08695-.05376-.16378-.11423-.22804-.17931-.06551-.06551-.11843-.14196-.15705-.22719-.03823-.08568-.05755-.18644-.05755-.29985,0-.13898.03024-.26204.09031-.36577.05921-.10286.13815-.18854.23432-.25531.09532-.06594.20449-.11506.32461-.14696.11843-.03151.24188-.04746.3666-.04746.28053,0,.49006.03654.62234.10792.01722.00968.02815.02771.02815.04746v.37583c0,.02016-.01137.03864-.02898.04787-.01849.00841-.0399.00797-.05586-.0042-.15371-.1096-.35526-.16503-.5984-.16503-.06552,0-.13355.00756-.20159.02182-.06508.01385-.12093.03611-.17175.06761-.04872.03024-.0886.06929-.11843.11633-.02898.04533-.04368.10246-.04368.17007,0,.06467.01133.1201.03402.16545.02311.0466.05712.0882.1033.12807.04787.04073.10836.08147.17975.12095.07349.04033.15789.08568.25406.13438.10121.05124.19778.10582.2864.16168.09155.05755.17301.1222.24315.19275.07013.07013.12722.15035.16965.23853.04324.0907.06425.19064.06425.30612,0,.14867-.0294.27757-.08693.38256-.05668.10457-.13521.19106-.23348.25658-.09575.06426-.20703.11169-.33133.14026-.12178.02772-.25196.04199-.38718.04199Zm-.63956-.24607c.02898.01678.06511.03277.1075.04745.06216.02099.12262.03696.18353.04914.06929.0147.13186.02478.19231.0315.06005.00712.11213.01049.15622.01049.12724,0,.24902-.01343.36282-.03946.11171-.02561.21123-.06763.29606-.12431.08316-.05626.15035-.12976.19905-.21879.04872-.08943.0735-.20072.0735-.33133,0-.09909-.01764-.18392-.05376-.25952-.03696-.07727-.08734-.14781-.14907-.20911-.06425-.06511-.13942-.12474-.22382-.17805-.0861-.05376-.17975-.10667-.27801-.15666-.09701-.04955-.1831-.09488-.25742-.13604-.07768-.04285-.14403-.08778-.19737-.13357-.05753-.04912-.09994-.10202-.12976-.16166-.03023-.06047-.04535-.13228-.04535-.21332,0-.0882.02016-.16503.06046-.22804.03865-.06046.08989-.11083.15204-.14991.06088-.03737.13018-.06509.20619-.08104.0756-.01637.15118-.02436.22425-.02436.22425,0,.41741.04408.57571.13186v-.24565c-.11799-.05376-.30066-.08106-.54296-.08106-.11548,0-.22928.0147-.33889.0441-.10834.02855-.2062.07264-.291.13101-.08316.05755-.15119.13187-.20241.2209-.05041.08691-.07602.19191-.07602.31199,0,.09786.01637.18394.04829.25575.03317.07308.07854.139.13523.19527.05838.05963.1285.11464.20786.16376.08231.05041.16966.09995.26749.1516.09156.04746.17763.09282.25661.13649.08018.04325.15243.0907.21415.14067.06215.05039.11212.10792.14866.17007.03738.06511.05628.14196.05628.22845,0,.16-.05668.28515-.16841.37164-.10876.08441-.26624.12556-.48039.12556-.06174,0-.12851-.00628-.19864-.01889-.07012-.01216-.13942-.02898-.2108-.05207-.06888-.02226-.13648-.05081-.20114-.08399-.02772-.01428-.05418-.02982-.07896-.0462v.25532Z"/></svg>