<?xml version="1.0" encoding="UTF-8"?><svg id="Layer_1" xmlns="http://www.w3.org/2000/svg" viewBox="0 0 215 50"><defs><style>.cls-1{fill:#d2dacb;stroke-width:0px;}</style></defs><path class="cls-1" d="m49.04225,19.07241h2.2193v20.51493h9.35775v2.00962h-11.57705v-22.52455Z"/><path class="cls-1" d="m79.45451,19.1025v22.49446h-9.95753c-1.01976,0-1.9697-.16961-2.8493-.5098-.8801-.33989-1.64965-.83971-2.30943-1.49982-.29997-.29997-.57499-.6247-.82491-.97455-.25023-.34985-.4752-.73478-.67474-1.15479-.32009-.6598-.5399-1.39942-.6598-2.21948-.12004-.81975-.18008-1.59959-.18008-2.33951v-13.79651h2.21948v13.79651c0,.59993.04505,1.27999.135,2.03956.08996.7602.29482,1.40969.61489,1.94943.99951,1.79979,2.50898,2.69934,4.52888,2.69934h7.94807v-20.48484h2.00946Z"/><path class="cls-1" d="m94.63045,34.42875v-15.29632h3.05949l15.62605,22.40466h-2.72927l-5.21878-7.52835-1.43963-2.06949-6.65839-9.77759h-.35983v19.37543l-2.27965-3.20948-2.96921-4.31888-1.40953-2.06949-6.68849-9.77759h-.38977v19.37543h-2.21945v-22.40466h3.05916l10.61729,15.29632Z"/><path class="cls-1" d="m115.92507,19.1025h2.27933v22.55432h-2.27933v-22.55432Z"/><path class="cls-1" d="m123.42285,21.74181h-.08981v19.79528h-2.21945v-22.49463h3.02922l12.56691,18.65529h.02992v-18.65529h2.27933v22.49463h-2.27933l-13.31679-19.79528Z"/><polygon class="cls-1" points="165.95775 20.13473 159.14991 16.20422 164.84811 12.91439 163.73845 10.99239 156.9306 14.9229 156.9306 8.34318 154.71129 8.34318 154.71129 16.20422 149.01308 12.91439 147.90344 14.83634 154.71131 18.76684 149.01308 22.05673 150.12273 23.9787 156.9306 20.04817 156.9306 26.62789 159.14991 26.62789 159.14991 18.76686 164.84811 22.05673 165.95775 20.13473"/><polygon class="cls-1" points="143.96738 19.1025 140.90822 19.1025 140.90822 41.62689 143.18754 41.62689 143.18754 34.03868 143.18754 32.02937 143.18754 31.10968 143.18754 21.68179 143.21749 21.68179 150.26563 32.02937 151.67534 34.03868 156.95429 41.62689 159.68357 41.62689 143.96738 19.1025"/></svg>