<?xml version="1.0" encoding="UTF-8"?><svg id="Layer_1" xmlns="http://www.w3.org/2000/svg" viewBox="0 0 215 50"><defs><style>.cls-1{fill:#d2dacb;stroke-width:0px;}</style></defs><path class="cls-1" d="m81.65975,21.55122c-.46321-.46313-1.25179-1.18762-1.75241-1.60999,0,0-1.79577-1.51505-3.44056-2.18668-1.64567-.67048-3.29015-1.00657-4.93492-1.00657-1.73201,0-3.40906.33609-5.03233,1.00657-1.62355.67163-3.40959,2.18479-3.40959,2.18479-.49976.4234-1.25334,1.18019-1.67462,1.68172,0,0-1.5615,1.85896-2.18865,3.50346-.62803,1.64563-.94145,3.31165-.94145,4.99976,0,1.68868.31342,3.33434.94145,4.93521.62715,1.60203,1.61222,3.07441,2.95461,4.41592,1.25489,1.25606,2.67229,2.21843,4.25312,2.88951,1.57993.67161,3.27937,1.00657,5.09745,1.00657,1.77444,0,3.4518-.33496,5.03261-1.00657,1.57965-.67107,3.33663-2.12901,3.33663-2.12901.50406-.41826,1.2954-1.13946,1.75853-1.60264l.78349-.7836c.46313-.46318.46561-1.22358.00552-1.68976l-3.197-3.23938c-.46011-.46618-1.21552-.46871-1.67872-.00556l-.78328.7832c-.46318.46313-1.28805,1.13933-1.83303,1.50271,0,0-1.73637,1.1577-3.42476,1.1577h-.81178c-.23204-.03583-.04483-.44597.41603-.91142l11.31118-11.42438c.46084-.46545.45892-1.22521-.00425-1.68834l-.78328-.7832Z"/><path class="cls-1" d="m97.71211,19.04907c1.41209,0,2.82016.28437,4.18469.84505,1.09063.44845,2.46026,1.47717,2.89489,1.83482.46372.38285,1.21447,1.06532,1.63945,1.49038l.3549.35491-2.3451,2.37718-.39233-.38192c-.50772-.49428-1.33431-1.23359-1.8818-1.6831-.13423-.11021-.64398-.49738-1.56938-.85218-.92943-.35517-1.90018-.53527-2.88532-.53527-.99423,0-1.98408.194-2.94376.57725-.96571.38688-1.84352.96948-2.60936,1.73177-1.5047,1.45531-2.26762,3.26578-2.26762,5.38145,0,1.02602.17836,2.02508.52939,2.96742.36703.98907.94825,1.88515,1.72624,2.66198,1.58222,1.58332,3.4546,2.38613,5.56511,2.38613,2.2307,0,4.1356-1.35644,4.34547-1.51112.59061-.43528,1.4652-1.17732,1.99107-1.68936l.38416-.37405,2.34496,2.40923-.31835.30976c-.44023.42835-1.20756,1.1263-1.67449,1.52319-.4368.36998-1.80711,1.42754-2.88773,1.8719-1.36493.56079-2.77299.84518-4.18509.84518-1.41635,0-2.83773-.28531-4.22506-.8482-1.37127-.556-2.61502-1.40528-3.69669-2.52429l-.01039-.01074-.01058-.01057c-1.07971-1.07873-1.88898-2.29936-2.4057-3.62898-.52566-1.35004-.79219-2.7792-.79219-4.2478,0-1.43027.26844-2.86421.79811-4.26267.51642-1.36502,1.32401-2.60288,2.4002-3.67906,1.08626-1.08601,2.3369-1.92039,3.71765-2.4802,1.38693-.56274,2.80831-.84809,4.22466-.84809m0-1.71671c-1.64567,0-3.2692.32447-4.87008.97404-1.60205.64953-3.0308,1.60203-4.28598,2.85692-1.25606,1.25604-2.18644,2.68481-2.79207,4.28567-.60681,1.60203-.90918,3.22558-.90918,4.87008,0,1.68868.30237,3.31223.90918,4.87066.60563,1.55843,1.53601,2.96566,2.79207,4.22055,1.25518,1.29849,2.68393,2.27251,4.28598,2.92208,1.60088.64952,3.22442.974,4.87008.974,1.64448,0,3.2567-.32449,4.83753-.974,1.57965-.64957,3.34597-2.1508,3.34597-2.1508.49907-.42421,1.29152-1.14499,1.76097-1.60178l.69539-.67662c.46945-.45678.47976-1.21455.0229-1.68393l-3.07882-3.16324c-.23245-.23882-.54288-.3588-.85346-.3588-.29988,0-.5999.11173-.83044.33619l-.76112.74112c-.46927.45694-1.28464,1.14877-1.81192,1.53737,0,0-1.59615,1.17636-3.32699,1.17636-1.64567,0-3.09564-.62688-4.3508-1.88292-.60679-.6059-1.04991-1.28802-1.33108-2.04573-.28204-.75709-.42215-1.54736-.42215-2.37019,0-1.64448.58439-3.02964,1.75323-4.15602.60591-.60532,1.28773-1.06007,2.04543-1.36362.75711-.30236,1.52615-.45414,2.30537-.45414s1.53603.14074,2.27251.42217c.7356.28204,1.09276.57533,1.09276.57533.50624.41564,1.30442,1.12956,1.77376,1.58644l.76091.74077c.23152.22537.53387.33773.83603.33773.3104,0,.62059-.11853.85368-.35482l3.06739-3.10933c.46-.46633.45744-1.22678-.00569-1.68999l-.71837-.71843c-.46313-.46321-1.25532-1.18335-1.76044-1.60038,0,0-1.75537-1.44917-3.33502-2.09871-1.58083-.64957-3.19305-.97404-4.83753-.97404h0Z"/><path class="cls-1" d="m116.69664,8.26976v8.52124c0,1.43167,1.02645,2.51123,2.38762,2.51123.37875,0,.75735-.0851,1.1228-.25188.00681-.00309.69238-.31158,1.55274-.55054.86416-.23862,1.79195-.35962,2.75756-.35962,1.52675,0,2.98821.30095,4.34266.89395,1.37033.60118,2.58881,1.43859,3.6207,2.48811,1.0346,1.05381,1.86574,2.30676,2.47009,3.72352.47891,1.12354.73663,2.93232.7954,3.5332.06548.67961.10358,1.20022.1063,1.2806l-.00018.2035c-.00107.01313-.00203.02645-.00288.03975l-.0035.05478v.10203c0,2.24693.75068,4.12297,2.23086,5.57572,1.51711,1.48967,3.39656,2.24501,5.58615,2.24501,2.18844,0,4.06758-.75522,5.58556-2.24502,1.52597-1.49842,2.29971-3.37435,2.29971-5.57571,0-1.05234-.21067-2.07735-.62628-3.04689-.40897-.95355-.96782-1.78927-1.66362-2.48656-.69523-.69373-1.53107-1.25262-2.4848-1.66137-.57411-.24585-1.02971-.37062-1.32901-.43344v-3.43153c.76398.12189,1.85757.34743,2.62562.68369,1.37732.60428,2.58828,1.42326,3.59925,2.43423,1.01096,1.01094,1.82996,2.22192,2.4337,3.59804.59389,1.35648.89502,2.81797.89502,4.34383,0,1.52687-.30108,2.98819-.89468,4.34306-.60334,1.37618-1.42226,2.58704-2.43403,3.59881-1.01276,1.01275-2.22339,1.83159-3.59903,2.4341-1.35359.59363-2.83647.89463-4.40739.89463-1.52914,0-2.99013-.30093-4.34404-.89516-1.3738-.60123-2.5843-1.42004-3.59783-2.43354-1.00836-1.0084-1.81357-2.21282-2.39393-3.58139-.61484-1.44582-.9266-2.9129-.9266-4.3605v-.00791c.00184-.0456.00318-.10339.00088-.17045l.00187-.00003c-.00043-.03112-.00067-.11891-.00067-.22166,0-.36105-.15116-1.24461-.24128-1.73914-.04878-.26763-.5202-2.65947-2.03678-4.20496-1.52162-1.54685-3.40817-2.33119-5.60722-2.33119-2.20647,0-4.08592.78829-5.58669,2.34358-1.488,1.54351-1.94981,3.93034-1.99757,4.19741-.1326.74144-.23645,1.91224-.23645,2.66545v10.59894h-3.38444V8.26976h3.38444m.52578-1.71669h-4.43601c-.655,0-1.1909.5359-1.1909,1.1909v34.37147c0,.655.5359,1.19093,1.1909,1.19093h4.43601c.655,0,1.19091-.53593,1.19091-1.19093v-11.12471c0-.655.09435-1.71848.20964-2.36323,0,0,.37477-2.09575,1.54359-3.30815,1.16882-1.21129,2.61909-1.81838,4.3508-1.81838,1.73114,0,3.19189.6071,4.38337,1.81838,1.18976,1.2124,1.57173,3.30882,1.57173,3.30882.11744.6444.21349,1.28855.21349,1.43141,0,.1429.00056.25981.00125.25981s-.00082.04188-.00333.09306v.04718c0,1.7759.39187,3.45295,1.0635,5.03231.67048,1.58113,1.591,2.95461,2.75982,4.12346,1.16882,1.1688,2.54235,2.10037,4.12345,2.79235,1.57934.69315,3.25641,1.03918,5.03233,1.03918,1.81777,0,3.51635-.34602,5.09688-1.03918,1.57992-.69198,2.95461-1.62355,4.12342-2.79235,1.16883-1.16885,2.09923-2.54233,2.79239-4.12346.69198-1.57936,1.03914-3.25641,1.03914-5.03231,0-1.77473-.34716-3.45182-1.03914-5.03231-.69315-1.57997-1.62355-2.95465-2.79239-4.12345-1.1688-1.16882-2.5435-2.09923-4.12342-2.7924-1.56142-.68362-3.8472-.91531-3.8472-.91531-.04009-.00406-.07985-.00606-.11894-.00606-.59642,0-1.06589.46215-1.06589,1.07686v4.50078c0,.65503.53308,1.24582,1.18463,1.31291,0,0,.4468.04599,1.18527.36224.75711.32449,1.40608.75768,1.94804,1.29849.54079.54197.97402,1.19151,1.29849,1.94804.32506.75828.48731,1.54853.48731,2.37021,0,1.73228-.59546,3.18198-1.7858,4.35082-1.19093,1.1688-2.65222,1.75321-4.38278,1.75321-1.73231,0-3.19305-.58441-4.38337-1.75321-1.19091-1.16883-1.71693-2.61853-1.71693-4.35082v-.04715c.00328-.05121.00609-.09309.00624-.09309.00018,0,.0003-.11691.0003-.25981,0-.14286-.05139-.79321-.11418-1.44521,0,0-.23298-2.41814-.92496-4.04168-.69256-1.62357-1.63403-3.04068-2.82435-4.25312-1.19151-1.21188-2.57607-2.16437-4.156-2.85749-1.58053-.692-3.25758-1.03857-5.03234-1.03857-1.12635,0-2.19749.14071-3.21454.42157-1.01764.28261-1.80607.64243-1.80607.64243-.14582.06655-.28519.09805-.41249.09805-.39282,0-.67093-.29986-.67093-.79456V7.74397c0-.655-.53591-1.1909-1.19091-1.1909h0Z"/></svg>